<svg xmlns="http://www.w3.org/2000/svg" width="21.285" height="21.285" viewBox="0 0 21.285 21.285">
  <g id="button.settings" transform="translate(0.75 0.75)">
    <circle id="Ellipse_83" data-name="Ellipse 83" cx="2.698" cy="2.698" r="2.698" transform="translate(7.194 7.194)" fill="none" stroke="#afbbc6" stroke-linecap="round" stroke-linejoin="round" stroke-width="1.5"/>
    <path id="Path_69" data-name="Path 69" d="M17.547,13.59a1.484,1.484,0,0,0,.3,1.637l.054.054a1.8,1.8,0,1,1-2.545,2.545l-.054-.054a1.5,1.5,0,0,0-2.536,1.061v.153a1.8,1.8,0,1,1-3.6,0v-.081a1.484,1.484,0,0,0-.971-1.358,1.484,1.484,0,0,0-1.637.3L6.5,17.9a1.8,1.8,0,1,1-2.545-2.545l.054-.054a1.5,1.5,0,0,0-1.061-2.536H2.8a1.8,1.8,0,0,1,0-3.6H2.88a1.484,1.484,0,0,0,1.358-.971,1.484,1.484,0,0,0-.3-1.637L3.887,6.5A1.8,1.8,0,1,1,6.432,3.959l.054.054a1.484,1.484,0,0,0,1.637.3h.072a1.484,1.484,0,0,0,.9-1.358V2.8a1.8,1.8,0,1,1,3.6,0V2.88a1.5,1.5,0,0,0,2.536,1.061l.054-.054a1.8,1.8,0,1,1,2.545,2.545l-.054.054a1.484,1.484,0,0,0-.3,1.637v.072a1.484,1.484,0,0,0,1.358.9h.153a1.8,1.8,0,1,1,0,3.6h-.081A1.484,1.484,0,0,0,17.547,13.59Z" transform="translate(-1 -1)" fill="none" stroke="#afbbc6" stroke-linecap="round" stroke-linejoin="round" stroke-width="1.5"/>
  </g>
</svg>
