<svg xmlns="http://www.w3.org/2000/svg" width="25.557" height="17.252" viewBox="0 0 25.557 17.252">
  <path id="Icon_zocial-email" data-name="Icon zocial-email" d="M.072,19.792V5.6q0-.025.074-.468L8.5,12.275l-8.33,8.01a2.089,2.089,0,0,1-.1-.493ZM1.181,4.142A1.062,1.062,0,0,1,1.6,4.068H24.1a1.4,1.4,0,0,1,.444.074l-8.379,7.172-1.109.887L12.863,14l-2.193-1.8L9.56,11.314Zm.025,17.1,8.4-8.059,3.253,2.637,3.253-2.637,8.4,8.059a1.183,1.183,0,0,1-.419.074H1.6a1.116,1.116,0,0,1-.394-.074Zm16.019-8.971,8.33-7.147a1.471,1.471,0,0,1,.074.468v14.2a1.889,1.889,0,0,1-.074.493Z" transform="translate(-0.072 -4.068)" fill="#1e4897"/>
</svg>
