<svg xmlns="http://www.w3.org/2000/svg" width="21.142" height="21.142" viewBox="0 0 21.142 21.142">
  <path id="Icon_awesome-phone-alt" data-name="Icon awesome-phone-alt" d="M20.539,14.94l-4.625-1.982a.991.991,0,0,0-1.156.285l-2.048,2.5A15.306,15.306,0,0,1,5.393,8.429L7.9,6.381A.989.989,0,0,0,8.18,5.224L6.2.6A1,1,0,0,0,5.063.025L.768,1.016A.991.991,0,0,0,0,1.982a19.158,19.158,0,0,0,19.16,19.16.991.991,0,0,0,.966-.768l.991-4.295a1,1,0,0,0-.579-1.14Z" transform="translate(0 0)" fill="#1e4897"/>
</svg>
