<svg xmlns="http://www.w3.org/2000/svg" width="59" height="59" viewBox="0 0 59 59">
  <g id="Group_12264" data-name="Group 12264" transform="translate(-10688.5 423)">
    <circle id="Ellipse_16" data-name="Ellipse 16" cx="29.5" cy="29.5" r="29.5" transform="translate(10688.5 -423)" fill="#afafaf" opacity="0.63"/>
    <g id="Group_11828" data-name="Group 11828" transform="translate(10701.835 -408)">
      <path id="Path_28317" data-name="Path 28317" d="M40.2,30.8v8.96a2.869,2.869,0,0,0,2.906,2.906H65.447a2.869,2.869,0,0,0,2.906-2.906V30.8a87.939,87.939,0,0,1-9.566.908v.182a3.243,3.243,0,0,1-3.209,3.269H53.1a3.2,3.2,0,0,1-3.209-3.269v-.182A87.311,87.311,0,0,1,40.2,30.8Z" transform="translate(-38.081 -13.666)" fill="#fff"/>
      <path id="Path_28318" data-name="Path 28318" d="M37.366,17.03a75.111,75.111,0,0,0,11.079,1.211,3.191,3.191,0,0,1,3.209-3.209h2.482a3.23,3.23,0,0,1,3.209,3.209A75.135,75.135,0,0,0,68.364,17.03a.854.854,0,0,0,.666-.848V11.7A2.907,2.907,0,0,0,66.124,8.8H59.707V6.677A4.186,4.186,0,0,0,55.529,2.5H50.2a4.186,4.186,0,0,0-4.178,4.177V8.8H39.606A2.869,2.869,0,0,0,36.7,11.7v4.48A.854.854,0,0,0,37.366,17.03ZM49.354,6.677a.88.88,0,0,1,.908-.848H55.59a.866.866,0,0,1,.848.848V8.8H49.354Z" transform="translate(-36.7 -2.5)" fill="#fff"/>
      <path id="Path_28319" data-name="Path 28319" d="M63.29,31.359a.956.956,0,0,0,.969-.969V27.969A.956.956,0,0,0,63.29,27H60.869a.956.956,0,0,0-.969.969V30.39a.956.956,0,0,0,.969.969Z" transform="translate(-45.854 -12.167)" fill="#fff"/>
    </g>
  </g>
</svg>
