<svg xmlns="http://www.w3.org/2000/svg" width="59" height="59" viewBox="0 0 59 59">
  <g id="Group_12266" data-name="Group 12266" transform="translate(-10688.5 233)">
    <circle id="Ellipse_19" data-name="Ellipse 19" cx="29.5" cy="29.5" r="29.5" transform="translate(10688.5 -233)" fill="#afafaf" opacity="0.63"/>
    <g id="office-building" transform="translate(10703.5 -217)">
      <path id="Path_29674" data-name="Path 29674" d="M1,120.808V140.3a.808.808,0,0,0,.808.808H3.019v-4.145a.808.808,0,0,1,1.615,0V141.1H6.653V120H1.808A.808.808,0,0,0,1,120.808Zm2.826,2.423a.808.808,0,1,1-.808.808A.808.808,0,0,1,3.826,123.23Zm0,3.23a.808.808,0,1,1-.808.808A.808.808,0,0,1,3.826,126.46Zm0,3.23a.808.808,0,1,1-.808.808A.808.808,0,0,1,3.826,129.691Zm0,3.23a.808.808,0,1,1-.808.808A.808.808,0,0,1,3.826,132.921Z" transform="translate(0 -113.54)" fill="#fff"/>
      <path id="Path_29675" data-name="Path 29675" d="M410.845,120H406v21.1h2.019v-4.145a.808.808,0,0,1,1.615,0V141.1h1.211a.808.808,0,0,0,.808-.808V120.808A.808.808,0,0,0,410.845,120Zm-2.019,14.536a.808.808,0,1,1,.808-.808A.808.808,0,0,1,408.826,134.536Zm0-3.23a.808.808,0,1,1,.808-.808A.808.808,0,0,1,408.826,131.306Zm0-3.23a.808.808,0,1,1,.808-.808A.808.808,0,0,1,408.826,128.076Zm0-3.23a.808.808,0,1,1,.808-.808A.808.808,0,0,1,408.826,124.845Z" transform="translate(-383.196 -113.54)" fill="#fff"/>
      <path id="Path_29676" data-name="Path 29676" d="M211,450h1.615v3.338H211Z" transform="translate(-198.694 -425.773)" fill="#fff"/>
      <path id="Path_29677" data-name="Path 29677" d="M271,450h1.615v3.338H271Z" transform="translate(-255.464 -425.773)" fill="#fff"/>
      <path id="Path_29678" data-name="Path 29678" d="M148.113,0H136.808A.808.808,0,0,0,136,.808V27.565h2.423V23.419a.808.808,0,0,1,.808-.808h6.46a.808.808,0,0,1,.808.808v4.145h2.423V.808A.808.808,0,0,0,148.113,0ZM139.23,21a.808.808,0,1,1,.808-.808A.808.808,0,0,1,139.23,21Zm0-3.23a.808.808,0,1,1,.808-.808A.808.808,0,0,1,139.23,17.766Zm0-3.23a.808.808,0,1,1,.808-.808A.808.808,0,0,1,139.23,14.536Zm0-3.23a.808.808,0,1,1,.808-.808A.808.808,0,0,1,139.23,11.306Zm0-3.23a.808.808,0,1,1,.808-.808A.808.808,0,0,1,139.23,8.076Zm0-3.23a.808.808,0,1,1,.808-.808A.808.808,0,0,1,139.23,4.845ZM142.46,21a.808.808,0,1,1,.808-.808A.808.808,0,0,1,142.46,21Zm0-3.23a.808.808,0,1,1,.808-.808A.808.808,0,0,1,142.46,17.766Zm0-3.23a.808.808,0,1,1,.808-.808A.808.808,0,0,1,142.46,14.536Zm0-3.23a.808.808,0,1,1,.808-.808A.808.808,0,0,1,142.46,11.306Zm0-3.23a.808.808,0,1,1,.808-.808A.808.808,0,0,1,142.46,8.076Zm0-3.23a.808.808,0,1,1,.808-.808A.808.808,0,0,1,142.46,4.845ZM145.691,21a.808.808,0,1,1,.808-.808A.808.808,0,0,1,145.691,21Zm0-3.23a.808.808,0,1,1,.808-.808A.808.808,0,0,1,145.691,17.766Zm0-3.23a.808.808,0,1,1,.808-.808A.808.808,0,0,1,145.691,14.536Zm0-3.23a.808.808,0,1,1,.808-.808A.808.808,0,0,1,145.691,11.306Zm0-3.23a.808.808,0,1,1,.808-.808A.808.808,0,0,1,145.691,8.076Zm0-3.23a.808.808,0,1,1,.808-.808A.808.808,0,0,1,145.691,4.845Z" transform="translate(-127.732)" fill="#fff"/>
    </g>
  </g>
</svg>
