<svg xmlns="http://www.w3.org/2000/svg" xmlns:xlink="http://www.w3.org/1999/xlink" width="695.776" height="645.929" viewBox="0 0 695.776 645.929">
  <defs>
    <linearGradient id="linear-gradient" y1="0.5" x2="1" y2="0.5" gradientUnits="objectBoundingBox">
      <stop offset="0" stop-color="#fff"/>
      <stop offset="1" stop-color="#cbdceb"/>
    </linearGradient>
    <linearGradient id="linear-gradient-2" x1="0.407" y1="0.057" x2="0.75" y2="1.691" xlink:href="#linear-gradient"/>
  </defs>
  <g id="Group_3100" data-name="Group 3100" transform="translate(-120.337 -590.435)">
    <path id="Path_1291" data-name="Path 1291" d="M378.616,782.206s-84.255-37.612-153.965-32.1c-63.146,5-73.223,14.041-104.315,10.03,8.025,20.06,42.126,86.26,112.339,110.334s138.416,12.036,164.5-8.024S394.663,790.231,378.616,782.206Z" transform="translate(0 231.486)" fill="#f7cb17"/>
    <path id="Path_1292" data-name="Path 1292" d="M131.165,759.181s120.362,52.659,228.69,42.126" transform="translate(15.752 245.485)" fill="none" stroke="#fff" stroke-miterlimit="10" stroke-width="1.226"/>
    <line id="Line_18" data-name="Line 18" y1="17.302" x2="43.255" transform="translate(175.503 1029.49)" fill="none" stroke="#fff" stroke-miterlimit="10" stroke-width="1.226"/>
    <path id="Path_1293" data-name="Path 1293" d="M171.464,759.947c0,1.129,21.437,33.475,21.437,33.475" transform="translate(74.377 246.599)" fill="none" stroke="#fff" stroke-miterlimit="10" stroke-width="1.226"/>
    <g id="Group_2987" data-name="Group 2987" transform="translate(526.488 866.721)">
      <path id="Path_1294" data-name="Path 1294" d="M286.668,855.64s25.8-66.5,67.091-101.4c37.4-31.612,47.853-32.128,62.748-51.25,6.508,15.384,23.8,70.3-1.662,121.719s-69.47,81.928-94.709,85.1S282.22,868.778,286.668,855.64Z" transform="translate(-285.792 -702.986)" fill="#f7cb17"/>
      <path id="Path_1295" data-name="Path 1295" d="M396.831,711.795s-37.45,94.412-102.673,147.57" transform="translate(-273.62 -690.171)" fill="none" stroke="#fff" stroke-miterlimit="10" stroke-width="0.948"/>
      <line id="Line_19" data-name="Line 19" x1="33.17" y2="14.034" transform="translate(97.265 60.314)" fill="none" stroke="#fff" stroke-miterlimit="10" stroke-width="0.948"/>
      <path id="Path_1296" data-name="Path 1296" d="M314.27,734.143c.614.619,6.441,30.051,6.441,30.051" transform="translate(-244.363 -657.66)" fill="none" stroke="#fff" stroke-miterlimit="10" stroke-width="0.948"/>
    </g>
    <g id="Group_2988" data-name="Group 2988" transform="translate(172.295 801.051)">
      <path id="Path_1297" data-name="Path 1297" d="M392.459,910.943S372.4,802.615,302.186,752.464,183.83,702.313,141.7,676.234c0,0-4.011,42.126,24.074,106.32S227.961,898.9,292.156,926.99,392.459,910.943,392.459,910.943Z" transform="translate(-141.503 -676.234)" fill="#1e4897"/>
      <path id="Path_1298" data-name="Path 1298" d="M148.939,686.04s116.35,138.419,188.569,200.607" transform="translate(-130.686 -661.969)" fill="none" stroke="#fff" stroke-miterlimit="10" stroke-width="1.226"/>
      <line id="Line_20" data-name="Line 20" x2="49.148" y2="6.018" transform="translate(33.298 93.281)" fill="none" stroke="#fff" stroke-miterlimit="10" stroke-width="1.226"/>
      <line id="Line_21" data-name="Line 21" x1="13.039" y2="55.167" transform="translate(117.553 80.242)" fill="none" stroke="#fff" stroke-miterlimit="10" stroke-width="1.226"/>
      <line id="Line_22" data-name="Line 22" y1="3.009" x2="61.185" transform="translate(103.51 185.56)" fill="none" stroke="#fff" stroke-miterlimit="10" stroke-width="1.226"/>
    </g>
    <path id="Path_1299" data-name="Path 1299" d="M301.108,850.54s42.926-78,109.538-98.625,103.544-8.385,142.489-17.682c0,0-7.629,33.336-45.494,75.442s-77.283,73.446-133.669,78.672S301.108,850.54,301.108,850.54Z" transform="translate(262.977 209.193)" fill="#1e4897"/>
    <path id="Path_1300" data-name="Path 1300" d="M511.59,739.887S387.146,816.492,315.939,845.841" transform="translate(284.553 217.417)" fill="none" stroke="#fff" stroke-miterlimit="10" stroke-width="0.991"/>
    <line id="Line_23" data-name="Line 23" x1="4.021" y2="45.634" transform="translate(691.666 971.835)" fill="none" stroke="#fff" stroke-miterlimit="10" stroke-width="0.991"/>
    <line id="Line_24" data-name="Line 24" x1="46.171" y1="17.862" transform="translate(642.753 1043.958)" fill="none" stroke="#fff" stroke-miterlimit="10" stroke-width="0.991"/>
    <g id="Group_2993" data-name="Group 2993" transform="translate(299.829 928.496)">
      <g id="Group_2989" data-name="Group 2989" transform="translate(38.519 132.714)">
        <path id="Path_1301" data-name="Path 1301" d="M495.784,847.935c20.91,12.073,21.02,31.642.245,43.714l-97.51,56.665c-20.775,12.072-54.557,12.072-75.466,0L224.9,891.65c-20.91-12.073-21.018-31.642-.245-43.714l97.513-56.665c20.772-12.072,54.557-12.072,75.467,0Z" transform="translate(-209.148 -782.216)" fill="url(#linear-gradient)"/>
      </g>
      <g id="Group_2992" data-name="Group 2992">
        <g id="Group_2990" data-name="Group 2990" transform="translate(38.519 106.583)">
          <path id="Path_1302" data-name="Path 1302" d="M495.784,837.29c20.91,12.072,21.02,31.642.245,43.714l-97.51,56.668c-20.775,12.072-54.557,12.072-75.466,0L224.9,881.007c-20.91-12.072-21.018-31.642-.245-43.714l97.513-56.668c20.772-12.072,54.557-12.072,75.467,0Z" transform="translate(-209.148 -771.57)" fill="none" stroke="#94c3ff" stroke-miterlimit="10" stroke-width="0.926"/>
        </g>
        <g id="Group_2991" data-name="Group 2991">
          <path id="Path_1303" data-name="Path 1303" d="M553.39,800.44,431.063,871.527c-26.062,15.146-68.444,15.146-94.675,0L213.26,800.44c-13.2-7.62-19.793-17.623-19.763-27.609l-.039,14.147c-.029,9.989,6.564,19.989,19.763,27.611l123.128,71.087c26.231,15.146,68.613,15.146,94.673,0l122.33-71.09c12.946-7.524,19.427-17.367,19.454-27.228l.042-14.147C572.817,783.07,566.337,792.916,553.39,800.44Z" transform="translate(-193.457 -663.153)" fill="#a6d0f4"/>
          <path id="Path_1304" data-name="Path 1304" d="M553.058,810.6c26.232,15.143,26.369,39.693.309,54.839L431.04,936.524c-26.062,15.146-68.444,15.146-94.675,0l-123.128-71.09c-26.231-15.143-26.369-39.693-.309-54.837l122.33-71.09c26.06-15.146,68.441-15.146,94.672,0Z" transform="translate(-193.434 -728.151)" fill="url(#linear-gradient-2)"/>
        </g>
      </g>
    </g>
    <g id="Group_2998" data-name="Group 2998" transform="translate(513.949 590.435)">
      <g id="Group_2995" data-name="Group 2995" transform="translate(0)">
        <path id="Path_1305" data-name="Path 1305" d="M445.7,671.926,309.588,593.342c-5.886-3.4-11.216-3.717-15.065-1.48l-11.27,6.549c3.849-2.236,9.181-1.92,15.067,1.48l136.114,78.584c11.677,6.741,21.14,23.107,21.1,36.549l-.133,46.92c-.02,6.674-2.376,11.368-6.176,13.575l11.267-6.547c3.8-2.209,6.159-6.9,6.176-13.577l.135-46.918C466.842,695.035,457.379,678.669,445.7,671.926Z" transform="translate(-276.947 -590.434)" fill="#c7d8f2"/>
        <g id="Group_2994" data-name="Group 2994" transform="translate(0 6.549)">
          <path id="Path_1306" data-name="Path 1306" d="M438.171,674.594c11.677,6.741,21.14,23.107,21.1,36.549l-.133,46.92c-.039,13.442-9.564,18.845-21.241,12.1L301.788,691.584c-11.7-6.756-21.14-23.109-21.1-36.551l.133-46.92c.039-13.442,9.542-18.857,21.241-12.1Z" transform="translate(-280.684 -593.102)" fill="#eaf1f7"/>
        </g>
      </g>
      <g id="Group_2997" data-name="Group 2997" transform="translate(0 124.709)">
        <path id="Path_1307" data-name="Path 1307" d="M445.7,722.729,309.588,644.145c-5.886-3.4-11.216-3.716-15.065-1.48l-11.27,6.549c3.849-2.236,9.181-1.92,15.067,1.478l136.114,78.584c11.677,6.743,21.14,23.109,21.1,36.551l-.133,46.92c-.02,6.675-2.376,11.368-6.176,13.575l11.267-6.549c3.8-2.207,6.159-6.9,6.176-13.575l.135-46.918C466.842,745.838,457.379,729.47,445.7,722.729Z" transform="translate(-276.947 -641.237)" fill="#2d67c4"/>
        <g id="Group_2996" data-name="Group 2996" transform="translate(0 6.548)">
          <path id="Path_1308" data-name="Path 1308" d="M438.171,725.4c11.677,6.743,21.14,23.109,21.1,36.551l-.133,46.92c-.039,13.442-9.564,18.845-21.241,12.1L301.788,742.385c-11.7-6.753-21.14-23.107-21.1-36.549l.133-46.92c.039-13.442,9.542-18.857,21.241-12.1Z" transform="translate(-280.684 -643.905)" fill="#1e4897"/>
        </g>
      </g>
    </g>
    <g id="Group_3043" data-name="Group 3043" transform="translate(618.232 683.392)">
      <g id="Group_2999" data-name="Group 2999" transform="translate(48.963 68.584)">
        <path id="Path_1309" data-name="Path 1309" d="M343.33,656.242c-.071.056-.145.113-.218.169C343.186,656.355,343.259,656.3,343.33,656.242Z" transform="translate(-343.112 -656.242)" fill="#a6d0f4"/>
      </g>
      <g id="Group_3000" data-name="Group 3000" transform="translate(19.621 61.704)">
        <path id="Path_1310" data-name="Path 1310" d="M331.417,653.677c-.086-.079-.172-.157-.258-.238C331.245,653.52,331.331,653.6,331.417,653.677Z" transform="translate(-331.159 -653.439)" fill="#a6d0f4"/>
      </g>
      <g id="Group_3001" data-name="Group 3001" transform="translate(29.705 68.832)">
        <path id="Path_1311" data-name="Path 1311" d="M335.4,656.407l-.13-.064Z" transform="translate(-335.267 -656.343)" fill="#a6d0f4"/>
      </g>
      <g id="Group_3002" data-name="Group 3002" transform="translate(30.218 69.083)">
        <path id="Path_1312" data-name="Path 1312" d="M335.861,656.624l-.385-.179Z" transform="translate(-335.476 -656.445)" fill="#a6d0f4"/>
      </g>
      <g id="Group_3003" data-name="Group 3003" transform="translate(47.112 69.824)">
        <path id="Path_1313" data-name="Path 1313" d="M342.586,656.747l-.228.125Z" transform="translate(-342.358 -656.747)" fill="#a6d0f4"/>
      </g>
      <g id="Group_3030" data-name="Group 3030" style="isolation: isolate">
        <g id="Group_3004" data-name="Group 3004" transform="translate(9.655 49.633)">
          <path id="Path_1314" data-name="Path 1314" d="M327.362,648.927c-.088-.135-.177-.27-.263-.405C327.185,648.657,327.273,648.792,327.362,648.927Z" transform="translate(-327.099 -648.522)" fill="#a6d0f4"/>
        </g>
        <g id="Group_3005" data-name="Group 3005" transform="translate(6.235 43.619)">
          <path id="Path_1315" data-name="Path 1315" d="M326.936,648.4c-.425-.771-.837-1.549-1.23-2.332C326.1,646.855,326.511,647.633,326.936,648.4Z" transform="translate(-325.706 -646.072)" fill="#a6d0f4"/>
        </g>
        <g id="Group_3006" data-name="Group 3006" transform="translate(10.229 50.517)">
          <path id="Path_1316" data-name="Path 1316" d="M328.821,651.042q-.762-1.064-1.488-2.16Q328.058,649.979,328.821,651.042Z" transform="translate(-327.333 -648.882)" fill="#a6d0f4"/>
        </g>
        <g id="Group_3007" data-name="Group 3007" transform="translate(11.734 52.702)">
          <path id="Path_1317" data-name="Path 1317" d="M328.228,650.162c-.093-.13-.187-.26-.282-.391C328.042,649.9,328.135,650.032,328.228,650.162Z" transform="translate(-327.946 -649.772)" fill="#a6d0f4"/>
        </g>
        <g id="Group_3008" data-name="Group 3008" transform="translate(13.499 55.041)">
          <path id="Path_1318" data-name="Path 1318" d="M329.117,651.292c-.15-.186-.3-.376-.449-.565l0,0C328.815,650.914,328.964,651.1,329.117,651.292Z" transform="translate(-328.665 -650.725)" fill="#a6d0f4"/>
        </g>
        <g id="Group_3009" data-name="Group 3009" transform="translate(6.235 42.542)">
          <path id="Path_1319" data-name="Path 1319" d="M347.725,671.158l-.13-.071-.388-.221c-.13-.074-.258-.15-.385-.226l-.125-.076c-.086-.049-.172-.1-.258-.155l-.15-.091-.236-.145-.155-.1-.228-.145-.155-.1-.233-.152-.147-.1-.243-.162-.137-.093c-.093-.061-.187-.125-.28-.189-.221-.155-.349-.243-.474-.334l-.373-.265-.123-.091-.25-.184-.135-.1c-.081-.059-.16-.12-.238-.179l-.14-.105-.233-.179-.137-.108-.236-.184L342,667.3l-.253-.2-.11-.088-.322-.265c-.165-.135-.29-.238-.412-.344-.15-.128-.255-.216-.361-.307-.187-.162-.272-.238-.361-.314l-.115-.1-.241-.216-.123-.11c-.081-.071-.162-.145-.241-.216l-.113-.1c-.086-.078-.172-.157-.258-.238-.194-.179-.29-.27-.388-.363-.3-.282-.538-.513-.773-.746l-.346-.344c-.162-.162-.253-.255-.344-.349-.174-.177-.26-.265-.346-.356-.177-.184-.265-.275-.351-.368-.172-.182-.268-.282-.361-.383-.4-.43-.739-.808-1.078-1.191-.115-.13-.221-.253-.327-.373-.145-.167-.236-.275-.329-.383-.152-.179-.241-.285-.329-.393-.152-.179-.243-.287-.334-.4l-.353-.432c-.447-.555-.874-1.1-1.291-1.655-.123-.162-.216-.287-.309-.412-.128-.172-.218-.295-.309-.42-.13-.177-.223-.307-.319-.437-.525-.734-1.021-1.453-1.5-2.185-.111-.167-.2-.3-.285-.434-.115-.179-.2-.314-.29-.449-.584-.918-1.129-1.819-1.655-2.732-.1-.174-.179-.314-.258-.454-.1-.184-.182-.326-.263-.469-.439-.8-.852-1.576-1.245-2.359,4.566-.864,13.916-1.068,14.407-1.078.007.012.155.263.447.7a23.913,23.913,0,0,0,7.173,7.124,9.475,9.475,0,0,0,7.379,1.193c.135-.037.272-.079.408-.123.444.523,8.852,10.43,13.636,16.722-.157.14-.317.277-.481.408-.093.076-.167.133-.241.189-.108.083-.177.135-.243.184-.118.086-.187.135-.258.184-.118.084-.2.135-.277.189-.273.179-.535.341-.805.491l-.268.147c-.123.066-.2.1-.275.142-.13.064-.211.105-.295.145-.307.145-.594.268-.886.381-.113.044-.2.076-.285.105-.133.049-.211.076-.292.1-.14.047-.228.074-.314.1-.334.1-.641.187-.95.26-.125.029-.216.049-.307.069l-.312.064c-.147.027-.233.042-.322.056-.152.025-.253.039-.351.054-.233.034-.454.061-.675.083-.115.01-.218.02-.322.027-.145.012-.236.017-.324.022-.162.01-.25.012-.336.017l-.353.01c-.273.005-.5,0-.734,0l-.336-.012c-.157-.007-.248-.012-.339-.02-.172-.01-.26-.017-.346-.025-.179-.015-.27-.022-.361-.032l-.4-.044c-.26-.032-.5-.066-.739-.1l-.351-.059-.1-.02-.253-.047-.111-.022c-.086-.017-.172-.034-.258-.054l-.1-.02-.287-.066c-.317-.071-.56-.133-.805-.2-.177-.049-.272-.074-.366-.1l-.113-.034-.255-.074-.123-.039-.245-.076-.13-.042c-.086-.027-.172-.054-.258-.083l-.113-.039c-.108-.037-.216-.074-.326-.113-.169-.059-.3-.106-.422-.152l-.373-.142-.128-.052c-.083-.032-.167-.066-.253-.1l-.135-.056-.243-.1-.145-.059-.245-.108-.135-.059c-.093-.042-.189-.084-.282-.128-.226-.1-.356-.165-.484-.223-.167-.081-.275-.133-.383-.187l-.13-.064-.255-.13-.147-.074-.241-.125-.155-.081-.243-.13-.147-.081C347.9,671.256,347.813,671.207,347.725,671.158Z" transform="translate(-325.706 -645.633)" fill="#4b5cc0"/>
        </g>
        <g id="Group_3010" data-name="Group 3010" transform="translate(12.674 53.973)">
          <path id="Path_1320" data-name="Path 1320" d="M329.154,651.358l0,0q-.42-.53-.827-1.07h0C328.6,650.651,328.876,651,329.154,651.358Z" transform="translate(-328.329 -650.29)" fill="#a6d0f4"/>
        </g>
        <g id="Group_3011" data-name="Group 3011" transform="translate(12.671 53.971)">
          <path id="Path_1321" data-name="Path 1321" d="M328.327,650.289l0,0h0Z" transform="translate(-328.327 -650.289)" fill="#a6d0f4"/>
        </g>
        <g id="Group_3012" data-name="Group 3012" transform="translate(14.65 56.455)">
          <path id="Path_1322" data-name="Path 1322" d="M329.4,651.62c-.091-.106-.179-.211-.268-.319C329.222,651.409,329.311,651.515,329.4,651.62Z" transform="translate(-329.134 -651.301)" fill="#a6d0f4"/>
        </g>
        <g id="Group_3013" data-name="Group 3013" transform="translate(15.308 57.231)">
          <path id="Path_1323" data-name="Path 1323" d="M329.719,651.98l-.317-.363Z" transform="translate(-329.402 -651.617)" fill="#a6d0f4"/>
        </g>
        <g id="Group_3014" data-name="Group 3014" transform="translate(15.635 57.604)">
          <path id="Path_1324" data-name="Path 1324" d="M330.559,652.9q-.515-.56-1.024-1.134Q330.043,652.343,330.559,652.9Z" transform="translate(-329.535 -651.769)" fill="#a6d0f4"/>
        </g>
        <g id="Group_3015" data-name="Group 3015" transform="translate(17.424 59.546)">
          <path id="Path_1325" data-name="Path 1325" d="M330.522,652.828c-.086-.088-.172-.177-.258-.268C330.35,652.651,330.436,652.739,330.522,652.828Z" transform="translate(-330.264 -652.56)" fill="#a6d0f4"/>
        </g>
        <g id="Group_3016" data-name="Group 3016" transform="translate(18.114 60.25)">
          <path id="Path_1326" data-name="Path 1326" d="M330.869,653.169l-.324-.322Z" transform="translate(-330.545 -652.847)" fill="#a6d0f4"/>
        </g>
        <g id="Group_3017" data-name="Group 3017" transform="translate(18.46 60.594)">
          <path id="Path_1327" data-name="Path 1327" d="M331.4,653.679q-.361-.342-.714-.692Q331.04,653.337,331.4,653.679Z" transform="translate(-330.686 -652.987)" fill="#a6d0f4"/>
        </g>
        <g id="Group_3018" data-name="Group 3018" transform="translate(20.355 62.371)">
          <path id="Path_1328" data-name="Path 1328" d="M331.7,653.927l-.241-.216Z" transform="translate(-331.458 -653.711)" fill="#a6d0f4"/>
        </g>
        <g id="Group_3019" data-name="Group 3019" transform="translate(21.845 63.653)">
          <path id="Path_1329" data-name="Path 1329" d="M332.387,654.5l-.322-.265Z" transform="translate(-332.065 -654.233)" fill="#a6d0f4"/>
        </g>
        <g id="Group_3020" data-name="Group 3020" transform="translate(44.765 70.843)">
          <path id="Path_1330" data-name="Path 1330" d="M341.662,657.162c-.086.03-.174.056-.26.083C341.488,657.218,341.576,657.192,341.662,657.162Z" transform="translate(-341.402 -657.162)" fill="#a6d0f4"/>
        </g>
        <g id="Group_3021" data-name="Group 3021" transform="translate(16.594 20.99)">
          <path id="Path_1331" data-name="Path 1331" d="M332.4,639.69l.3,3.6c.037.452.1.913.174,1.377a.769.769,0,0,1-.263-.1q-.074-.044-.155-.1c-2.163-1.713-3.361-7.538-1.873-7.61a1.185,1.185,0,0,1,.665.172,2.141,2.141,0,0,1,.535.454c.3,1.352.54,2.349.552,2.4Z" transform="translate(-329.926 -636.853)" fill="#cbdceb"/>
        </g>
        <g id="Group_3022" data-name="Group 3022" transform="translate(47.379 69.318)">
          <path id="Path_1332" data-name="Path 1332" d="M343.26,656.541c-.26.172-.523.334-.793.484C342.737,656.875,343,656.713,343.26,656.541Z" transform="translate(-342.467 -656.541)" fill="#a6d0f4"/>
        </g>
        <g id="Group_3023" data-name="Group 3023" transform="translate(21.089 37.784)">
          <path id="Path_1333" data-name="Path 1333" d="M345.153,655.512a15.5,15.5,0,0,0,1.156,1.957,9.475,9.475,0,0,1-7.379-1.193,23.913,23.913,0,0,1-7.173-7.124,3.11,3.11,0,0,0,1.262-.646,18.578,18.578,0,0,0,1.033-4.811l3.022,4.32a6.122,6.122,0,0,0,1.883,1.8,2.515,2.515,0,0,0,1.885.373l3.105-.842c.061-.015.123-.034.184-.052A35.6,35.6,0,0,0,345.153,655.512Z" transform="translate(-331.757 -643.695)" fill="#cbdceb"/>
        </g>
        <g id="Group_3024" data-name="Group 3024" transform="translate(48.462 68.972)">
          <path id="Path_1334" data-name="Path 1334" d="M343.117,656.4c-.069.051-.138.1-.209.15C342.979,656.5,343.048,656.451,343.117,656.4Z" transform="translate(-342.908 -656.4)" fill="#a6d0f4"/>
        </g>
        <g id="Group_3025" data-name="Group 3025" transform="translate(48.72 68.785)">
          <path id="Path_1335" data-name="Path 1335" d="M343.214,656.324c-.066.052-.135.1-.2.152C343.079,656.427,343.148,656.375,343.214,656.324Z" transform="translate(-343.013 -656.324)" fill="#a6d0f4"/>
        </g>
        <g id="Group_3026" data-name="Group 3026" transform="translate(19.069 15.617)">
          <path id="Path_1336" data-name="Path 1336" d="M347.231,648.947c1.107.641,1.34.611,1.353.611l.732,5.435-.179,1.816a10.576,10.576,0,0,1-.157,1.056c-.486,2.361-1.775,3.986-3.65,4.568-.061.017-.123.037-.184.052l-3.105.842a2.515,2.515,0,0,1-1.885-.373,6.12,6.12,0,0,1-1.883-1.8l-3.022-4.32-.069-.1a22.434,22.434,0,0,1-3.771-8.879c-.079-.464-.137-.925-.174-1.377l-.3-3.6,2.533-7.956c.02-.027.4-.552,1.34-.007a7.227,7.227,0,0,1,2.037,2.118c2.428,3.427,2.686,6.53,6.876,9.569A41.721,41.721,0,0,0,347.231,648.947Z" transform="translate(-330.934 -634.665)" fill="#cbdceb"/>
        </g>
        <g id="Group_3027" data-name="Group 3027" transform="translate(37.114 33.157)">
          <path id="Path_1337" data-name="Path 1337" d="M340.806,642.564c1.483,1.789.255,6.21-1.91,5.427a1.568,1.568,0,0,1-.155-.076,1.34,1.34,0,0,1-.457-.444,10.587,10.587,0,0,0,.157-1.056l.179-1.817.064.469a27.168,27.168,0,0,0,1.014-3.258,1.226,1.226,0,0,1,.442.159A2.516,2.516,0,0,1,340.806,642.564Z" transform="translate(-338.285 -641.81)" fill="#cbdceb"/>
        </g>
        <g id="Group_3028" data-name="Group 3028" transform="translate(17.455 7.501)">
          <path id="Path_1338" data-name="Path 1338" d="M344.451,635.408a23.38,23.38,0,0,1,7.543,14.159,20.669,20.669,0,0,1-.646,7.448,27.171,27.171,0,0,1-1.014,3.258l-.064-.469-.732-5.435c-.012,0-.245.03-1.353-.611a41.712,41.712,0,0,1-3.51-2.349c-4.19-3.039-4.448-6.142-6.876-9.569a7.227,7.227,0,0,0-2.037-2.118c-.943-.545-1.321-.02-1.34.007l-2.533,7.956-.061.191c-.012-.052-.248-1.048-.552-2.4-.324-1.456-.709-3.265-.916-4.509-.405-2.411.69-7.222,2.457-8.852,1.384-1.274,5.013-.965,8.663,1.141A18.077,18.077,0,0,1,344.451,635.408Z" transform="translate(-330.277 -631.358)" fill="#1e4897"/>
        </g>
        <g id="Group_3029" data-name="Group 3029">
          <path id="Path_1339" data-name="Path 1339" d="M344.255,671.544c-.292-.437-.439-.687-.447-.7-.491.01-9.841.214-14.409,1.073-3.915-7.784-6.255-16.2-6.233-23.88.049-17.664,12.544-24.793,27.915-15.917s27.788,30.383,27.736,48.047c-.022,7.75-2.44,13.472-6.449,16.7.165-.13.324-.268.481-.408-4.784-6.291-13.192-16.2-13.636-16.722-.135.044-.273.086-.408.123a15.492,15.492,0,0,1-1.156-1.957,35.6,35.6,0,0,1-1.021-6.215c1.875-.582,3.164-2.207,3.65-4.568a1.34,1.34,0,0,0,.457.444c2.32.859,3.547-3.562,2.064-5.351a2.517,2.517,0,0,0-.665-.594,1.226,1.226,0,0,0-.442-.159,20.667,20.667,0,0,0,.646-7.448,23.38,23.38,0,0,0-7.543-14.159,18.08,18.08,0,0,0-2.97-2.153c-3.65-2.106-7.278-2.416-8.663-1.141-1.767,1.63-2.862,6.441-2.457,8.852.206,1.245.592,3.054.916,4.509a2.141,2.141,0,0,0-.535-.454,1.185,1.185,0,0,0-.665-.172c-1.488.071-.29,5.9,1.873,7.61a1.134,1.134,0,0,0,.417.2,22.434,22.434,0,0,0,3.771,8.879,16.1,16.1,0,0,1-.965,4.912A3.111,3.111,0,0,1,344.255,671.544Z" transform="translate(-323.166 -628.303)" fill="#25437f"/>
        </g>
      </g>
      <g id="Group_3031" data-name="Group 3031" transform="translate(17.77 59.902)">
        <path id="Path_1340" data-name="Path 1340" d="M330.677,652.982c-.091-.091-.182-.184-.272-.277C330.5,652.8,330.587,652.891,330.677,652.982Z" transform="translate(-330.405 -652.705)" fill="#a6d0f4"/>
      </g>
      <g id="Group_3032" data-name="Group 3032" transform="translate(21.072 63.002)">
        <path id="Path_1341" data-name="Path 1341" d="M332.067,654.238l-.317-.27Z" transform="translate(-331.75 -653.968)" fill="#a6d0f4"/>
      </g>
      <g id="Group_3033" data-name="Group 3033" transform="translate(23.649 65.071)">
        <path id="Path_1342" data-name="Path 1342" d="M332.935,654.912l-.135-.1Z" transform="translate(-332.8 -654.811)" fill="#a6d0f4"/>
      </g>
      <g id="Group_3034" data-name="Group 3034" transform="translate(33.39 70.376)">
        <path id="Path_1343" data-name="Path 1343" d="M336.881,657.011l-.113-.039Z" transform="translate(-336.768 -656.972)" fill="#a6d0f4"/>
      </g>
      <g id="Group_3035" data-name="Group 3035" transform="translate(33.89 70.541)">
        <path id="Path_1344" data-name="Path 1344" d="M337.217,657.115l-.245-.076Z" transform="translate(-336.972 -657.039)" fill="#a6d0f4"/>
      </g>
      <g id="Group_3036" data-name="Group 3036" transform="translate(34.136 70.617)">
        <path id="Path_1345" data-name="Path 1345" d="M337.195,657.109l-.123-.039Z" transform="translate(-337.072 -657.07)" fill="#a6d0f4"/>
      </g>
      <g id="Group_3037" data-name="Group 3037" transform="translate(34.259 70.656)">
        <path id="Path_1346" data-name="Path 1346" d="M337.377,657.16l-.255-.074Z" transform="translate(-337.122 -657.086)" fill="#a6d0f4"/>
      </g>
      <g id="Group_3038" data-name="Group 3038" transform="translate(38.758 71.53)">
        <path id="Path_1347" data-name="Path 1347" d="M339.215,657.462c-.086-.005-.174-.012-.26-.02C339.041,657.449,339.129,657.457,339.215,657.462Z" transform="translate(-338.955 -657.442)" fill="#a6d0f4"/>
      </g>
      <g id="Group_3039" data-name="Group 3039" transform="translate(40.513 71.581)">
        <path id="Path_1348" data-name="Path 1348" d="M339.955,657.463l-.285.007Z" transform="translate(-339.67 -657.463)" fill="#a6d0f4"/>
      </g>
      <g id="Group_3040" data-name="Group 3040" transform="translate(41.13 71.562)">
        <path id="Path_1349" data-name="Path 1349" d="M339.995,657.455l-.074,0Z" transform="translate(-339.921 -657.455)" fill="#a6d0f4"/>
      </g>
      <g id="Group_3041" data-name="Group 3041" transform="translate(41.527 71.513)">
        <path id="Path_1350" data-name="Path 1350" d="M340.392,657.435c-.1.01-.206.02-.309.027C340.186,657.455,340.289,657.445,340.392,657.435Z" transform="translate(-340.083 -657.435)" fill="#a6d0f4"/>
      </g>
      <g id="Group_3042" data-name="Group 3042" transform="translate(45.371 70.626)">
        <path id="Path_1351" data-name="Path 1351" d="M341.9,657.074c-.083.034-.169.066-.255.1C341.735,657.14,341.821,657.108,341.9,657.074Z" transform="translate(-341.649 -657.074)" fill="#a6d0f4"/>
      </g>
    </g>
    <g id="Group_3053" data-name="Group 3053" transform="translate(618.23 800.423)">
      <g id="Group_3052" data-name="Group 3052" style="isolation: isolate">
        <g id="Group_3044" data-name="Group 3044" transform="translate(32.066 49.593)">
          <path id="Path_1352" data-name="Path 1352" d="M336.228,696.181c.059.2.118.4.184.594l-.174.061C336.233,696.61,336.226,696.394,336.228,696.181Z" transform="translate(-336.228 -696.181)" fill="#25437f"/>
        </g>
        <g id="Group_3045" data-name="Group 3045" transform="translate(15.573 20.253)">
          <path id="Path_1353" data-name="Path 1353" d="M330.8,684.394a11.48,11.48,0,0,0,1.031,3.918s.093-.1.233-.277l.219,2.632c.039.449.106.908.184,1.372a1,1,0,0,1-.314-.118l-.054-.034-.059-.039c-1.485-1.183-2.516-4.306-2.531-6.166-.007-.844.194-1.429.66-1.451A1.152,1.152,0,0,1,330.8,684.394Z" transform="translate(-329.509 -684.229)" fill="#cbdceb"/>
        </g>
        <g id="Group_3046" data-name="Group 3046" transform="translate(22.451 38.868)">
          <path id="Path_1354" data-name="Path 1354" d="M340.927,695.973a28.729,28.729,0,0,0,1,6.564c0,.214,0,.43.01.655a5.629,5.629,0,0,1-4.568-.454c-.088-.047-.179-.1-.265-.145l-.138-.081a15,15,0,0,1-4.62-5.008l-.034-.061a15.874,15.874,0,0,0,1.186-5.631l1.748,2.5a6.083,6.083,0,0,0,1.885,1.8,2.527,2.527,0,0,0,1.888.376Z" transform="translate(-332.311 -691.812)" fill="#cbdceb"/>
        </g>
        <path id="Path_1355" data-name="Path 1355" d="M360.325,711.648c-.815-1.051-1.883-2.317-3.027-3.628a9.519,9.519,0,0,1-.727,2.661c-2.227,5.074-6.26,4.762-6.473,4.745a25.436,25.436,0,0,0,.876-6.215,11.671,11.671,0,0,0-.292-2.779c-.211-.854-.388-1.757-.53-2.68a28.559,28.559,0,0,1-.336-3.638,5.629,5.629,0,0,1-4.568-.454c-.088-.047-.179-.1-.265-.145l-.138-.081a15,15,0,0,1-4.62-5.008c-.025-.039-.034-.059-.054-.066-.221-.02-7.163-.712-10.315-.3-1.095.137-2.106,2.106-2.963,4.635,4.914,7.946,11.429,14.814,18.587,18.948,6.834,3.945,13.1,4.72,17.954,2.82C362.557,716.639,361.5,713.148,360.325,711.648Z" transform="translate(-317.74 -649.865)" fill="#4b5cc0"/>
        <path id="Path_1356" data-name="Path 1356" d="M340.868,696.528a19.226,19.226,0,0,1-1.274-3.866,4.861,4.861,0,0,1-2.317,1.664c-.086.024-.172.066-.258.093l-1.2.317a28.727,28.727,0,0,0,1,6.564c.059.2.118.4.184.594l-.174.061a28.551,28.551,0,0,0,.336,3.638c.142.923.319,1.826.53,2.68a11.669,11.669,0,0,1,.292,2.779,25.436,25.436,0,0,1-.876,6.215c.214.017,4.247.329,6.473-4.745a9.52,9.52,0,0,0,.727-2.661,11.409,11.409,0,0,0,.091-1.451C344.408,704.447,342.491,700.286,340.868,696.528Z" transform="translate(-304.754 -651.708)" fill="#1e4897"/>
        <path id="Path_1357" data-name="Path 1357" d="M348.126,703.315l-1.213-5.42c-10.509-6.493-13.81-15.249-13.985-15.711.044.488.064.96.061,1.411a12.374,12.374,0,0,1-1.893,6.635,8.495,8.495,0,0,1-.547.776l.219,2.632c.039.449.106.908.184,1.372a22.566,22.566,0,0,0,3.761,8.894l1.345,1.912h0l1.748,2.5a6.082,6.082,0,0,0,1.885,1.8,2.527,2.527,0,0,0,1.888.376l1.91-.518,1.2-.317c.086-.027.172-.069.258-.093a4.861,4.861,0,0,0,2.317-1.664,6.8,6.8,0,0,0,1.245-2.894A3.283,3.283,0,0,1,348.126,703.315Z" transform="translate(-312.421 -666.949)" fill="#cbdceb"/>
        <g id="Group_3047" data-name="Group 3047" transform="translate(36.086 38.061)">
          <path id="Path_1358" data-name="Path 1358" d="M337.865,691.483l.007.011v.015Z" transform="translate(-337.865 -691.483)" fill="#25437f"/>
        </g>
        <g id="Group_3048" data-name="Group 3048" transform="translate(36.093 38.072)">
          <path id="Path_1359" data-name="Path 1359" d="M337.868,691.488l.066.1-.027.084-.039-.168Z" transform="translate(-337.868 -691.488)" fill="#25437f"/>
        </g>
        <g id="Group_3049" data-name="Group 3049" transform="translate(35.705 36.367)">
          <path id="Path_1360" data-name="Path 1360" d="M337.71,690.793l.38,1.694A3.282,3.282,0,0,1,337.71,690.793Z" transform="translate(-337.71 -690.793)" fill="#ff8d68"/>
        </g>
        <g id="Group_3050" data-name="Group 3050" transform="translate(36.159 32.488)">
          <path id="Path_1361" data-name="Path 1361" d="M339.709,689.326a2.422,2.422,0,0,1,.646.577A3.385,3.385,0,0,1,341,692.11c-.027,1.836-1.075,3.758-2.558,3.228a1.187,1.187,0,0,1-.135-.071.993.993,0,0,1-.12-.076,1.341,1.341,0,0,1-.295-.294,54.08,54.08,0,0,0,1.571-5.683c.039.015.079.029.12.049A1.235,1.235,0,0,1,339.709,689.326Z" transform="translate(-337.895 -689.213)" fill="#cbdceb"/>
        </g>
        <g id="Group_3051" data-name="Group 3051">
          <path id="Path_1362" data-name="Path 1362" d="M351.088,679.8c15.367,8.871,27.785,30.383,27.734,48.047-.027,9.8-3.9,16.359-9.961,18.73-.879-3.822-1.939-7.313-3.11-8.813-.815-1.051-1.88-2.317-3.027-3.628a11.408,11.408,0,0,0,.091-1.451c0-3.964-1.912-8.125-3.537-11.883a19.514,19.514,0,0,1-1.272-3.866,6.939,6.939,0,0,0,1.252-2.867,1.683,1.683,0,0,0,.361.378c1.738.677,2.786-1.245,2.813-3.081a3.385,3.385,0,0,0-.648-2.207,2.422,2.422,0,0,0-.646-.577c.152-1.954.469-3.982.479-5.793a12.816,12.816,0,0,0-.071-1.465c-.535-4.976-3.842-11.13-10.109-15.809-.118-.088-.233-.172-.349-.253-.464-.331-.916-.623-1.353-.881-4.983-2.813-8.2-1.083-9.181,2.2a6.624,6.624,0,0,0-.194.817,34.1,34.1,0,0,0-.5,5.624,27.8,27.8,0,0,0,.169,3.378,1.152,1.152,0,0,0-.631-.165c-.466.022-.668.606-.66,1.451.015,1.861,1.046,4.983,2.531,6.166a1.216,1.216,0,0,0,.427.191,22.565,22.565,0,0,0,3.761,8.894l1.345,1.912a15.487,15.487,0,0,1-1.205,5.629c-.221-.022-7.163-.714-10.315-.3-1.1.137-2.106,2.106-2.963,4.635-5.643-9.122-9.181-19.658-9.154-29.1C323.214,678.044,335.714,670.921,351.088,679.8Z" transform="translate(-323.165 -675.978)" fill="#25437f"/>
        </g>
      </g>
      <path id="Path_1363" data-name="Path 1363" d="M351.654,697.2c-.538-4.976-3.844-11.13-10.111-15.809-.118-.088-.233-.172-.349-.253-.464-.331-.916-.623-1.407-.911l-.123-.071c-4.806-2.712-8.022-.982-9,2.3a6.63,6.63,0,0,0-.194.817,34.1,34.1,0,0,0-.5,5.624,22.3,22.3,0,0,0,.206,3.4l-.037-.022a11.482,11.482,0,0,0,1.031,3.918s.093-.1.233-.277a8.492,8.492,0,0,0,.547-.776,12.374,12.374,0,0,0,1.893-6.635c0-.452-.017-.923-.061-1.411.174.461,3.476,9.218,13.985,15.711l1.213,5.42.388,1.706.066.1A54.286,54.286,0,0,0,351,704.342a28.934,28.934,0,0,0,.722-5.68A13.42,13.42,0,0,0,351.654,697.2Z" transform="translate(-313.271 -671.854)" fill="#1e4897"/>
    </g>
    <g id="Group_3056" data-name="Group 3056" transform="translate(527.846 639.659)">
      <g id="Group_3054" data-name="Group 3054" transform="translate(0.032)">
        <path id="Path_1364" data-name="Path 1364" d="M365.762,655.487a4.148,4.148,0,0,1,1.893,3.277c0,1.2-.842,1.7-1.9,1.085l-77.519-44.743a4.163,4.163,0,0,1-1.873-3.267c0-1.2.844-1.7,1.885-1.1Z" transform="translate(-286.358 -610.487)" fill="#79aef5"/>
      </g>
      <g id="Group_3055" data-name="Group 3055" transform="translate(0 11.091)">
        <path id="Path_1365" data-name="Path 1365" d="M343.435,647.137a4.119,4.119,0,0,1,1.873,3.243c0,1.2-.844,1.7-1.885,1.1l-55.2-31.872a4.159,4.159,0,0,1-1.873-3.265c0-1.2.844-1.677,1.885-1.075Z" transform="translate(-286.345 -615.005)" fill="#79aef5"/>
      </g>
    </g>
    <g id="Group_3059" data-name="Group 3059" transform="translate(527.846 764.368)">
      <g id="Group_3057" data-name="Group 3057" transform="translate(0.032)">
        <path id="Path_1366" data-name="Path 1366" d="M365.762,706.288a4.156,4.156,0,0,1,1.893,3.28c0,1.2-.842,1.7-1.9,1.085l-77.519-44.745a4.158,4.158,0,0,1-1.873-3.265c0-1.2.844-1.7,1.885-1.1Z" transform="translate(-286.358 -661.29)" fill="#254da1"/>
      </g>
      <g id="Group_3058" data-name="Group 3058" transform="translate(0 11.091)">
        <path id="Path_1367" data-name="Path 1367" d="M343.435,697.94a4.119,4.119,0,0,1,1.873,3.243c0,1.2-.844,1.7-1.885,1.1l-55.2-31.873a4.158,4.158,0,0,1-1.873-3.265c0-1.2.844-1.677,1.885-1.075Z" transform="translate(-286.345 -665.808)" fill="#254da1"/>
      </g>
    </g>
    <g id="Group_3063" data-name="Group 3063" transform="translate(575.493 831.505)">
      <g id="Group_3061" data-name="Group 3061" transform="translate(0)">
        <path id="Path_1368" data-name="Path 1368" d="M311.853,689.858c3.282-1.907,7.828-1.637,12.843,1.259,9.964,5.752,18.013,19.69,17.979,31.141-.015,5.69-2.023,9.694-5.263,11.577l-3.955,2.3c3.24-1.883,5.248-5.889,5.266-11.579.032-11.449-8.015-25.39-17.981-31.141-5.015-2.9-9.561-3.167-12.843-1.259Z" transform="translate(-302.637 -688.64)" fill="#86e563"/>
        <g id="Group_3060" data-name="Group 3060" transform="translate(0 2.298)">
          <path id="Path_1369" data-name="Path 1369" d="M323.859,692.053c9.966,5.751,18.013,19.692,17.981,31.141s-8.133,16.074-18.1,10.322-18.018-19.7-17.986-31.156S313.895,686.3,323.859,692.053Z" transform="translate(-305.755 -689.576)" fill="#2ab774"/>
        </g>
      </g>
      <g id="Group_3062" data-name="Group 3062" transform="translate(6.457 19.822)">
        <path id="Path_1370" data-name="Path 1370" d="M326.516,696.715l3.86,6.7-14.8,8.432-7.194-12.442,3.9-2.223,3.318,5.747Z" transform="translate(-308.385 -696.715)" fill="#fff"/>
      </g>
    </g>
    <g id="Group_3067" data-name="Group 3067" transform="translate(575.493 889.061)">
      <g id="Group_3065" data-name="Group 3065" transform="translate(0)">
        <path id="Path_1371" data-name="Path 1371" d="M311.853,713.3c3.282-1.907,7.828-1.637,12.843,1.259,9.964,5.754,18.013,19.692,17.979,31.141-.015,5.693-2.023,9.7-5.263,11.579l-3.955,2.3c3.24-1.883,5.248-5.887,5.266-11.579.032-11.449-8.015-25.387-17.981-31.141-5.015-2.9-9.561-3.167-12.843-1.259Z" transform="translate(-302.637 -712.087)" fill="#ff7363"/>
        <g id="Group_3064" data-name="Group 3064" transform="translate(0 2.298)">
          <path id="Path_1372" data-name="Path 1372" d="M323.859,715.5c9.966,5.754,18.013,19.692,17.981,31.141s-8.133,16.076-18.1,10.322-18.018-19.7-17.986-31.153S313.895,709.746,323.859,715.5Z" transform="translate(-305.755 -713.023)" fill="#ff465c"/>
        </g>
      </g>
      <g id="Group_3066" data-name="Group 3066" transform="translate(8.012 12.767)">
        <path id="Path_1373" data-name="Path 1373" d="M324.178,723.767l3.86,6.7-5.621,3.222L328,743.365l-3.885,2.233-5.6-9.7-5.621,3.222-3.876-6.714,5.621-3.2-5.584-9.691,3.9-2.223,5.584,9.691Z" transform="translate(-309.019 -717.288)" fill="#fff"/>
      </g>
    </g>
    <g id="Group_3077" data-name="Group 3077" transform="translate(417.453 752.92)">
      <g id="Group_3072" data-name="Group 3072">
        <path id="Path_1374" data-name="Path 1374" d="M297.537,670.468c-1.755-6.142-7.725-11.5-16.678-11.059-8.6.422-14.922,4.21-17.026,10.622-1.247,3.8-.967,10.447,1.328,15.254a17.31,17.31,0,0,0,5.872,6.309l-2.494,8.857c2.234,2.688,11.562,5.953,18.126,5.609.017,0,.8-3.091,1.62-6.4,4.37,1.227,7.593-2.361,9.164-7.251C298.539,689.018,298.9,675.257,297.537,670.468Z" transform="translate(-209.767 -652.616)" fill="#ff8e54"/>
        <path id="Path_1375" data-name="Path 1375" d="M297.536,670.468c-1.755-6.142-7.725-11.5-16.678-11.059-.152.007-.29.034-.442.044l-16.992,12.208a24.062,24.062,0,0,0,1.736,13.624,17.31,17.31,0,0,0,5.872,6.309l-2.494,8.857c2.234,2.688,11.562,5.953,18.126,5.609.017,0,.8-3.091,1.62-6.4a5.648,5.648,0,0,0,4.264-.41c-1.271-.523-2.278-1.836-3.284-3.68-1.6-2.931,3.731-4.8,4-7.728s-1.6-8,1.866-10.393a7.544,7.544,0,0,0,2.781-5.167A15.956,15.956,0,0,0,297.536,670.468Z" transform="translate(-209.766 -652.616)" fill="#ff5f4d"/>
        <g id="Group_3071" data-name="Group 3071" transform="translate(0 27.823)">
          <g id="Group_3070" data-name="Group 3070">
            <ellipse id="Ellipse_2" data-name="Ellipse 2" cx="73.325" cy="46.587" rx="73.325" ry="46.587" transform="translate(0 208.654)" fill="#cbdceb"/>
            <path id="Path_1376" data-name="Path 1376" d="M284.864,684.368l3.154-2.411,4.082-8.533s2.224-.928,2.781-1.115,4.824.744,4.824.744a30.769,30.769,0,0,1,2.6-2.784c.557-.371,2.784-2.784,3.709-2.226s.744,1.485.187,2.226-2.411,2.6-2.411,2.6l-2.042,5.008.187,1.856a1.621,1.621,0,0,1,1.483,1.115c.373,1.112.373,2.224-.925,2.6a15.9,15.9,0,0,0-2.413.925,25.61,25.61,0,0,1-4.08,2.413,27.168,27.168,0,0,1-3.154.928l-.928,2.227Z" transform="translate(-178.106 -667.961)" fill="#ff8e54"/>
            <path id="Path_1377" data-name="Path 1377" d="M303.415,673.268c-.012-.044-.042-.059-.056-.1a6.857,6.857,0,0,0-2.2.317c-1.041.447-2.528,2.528-3.125,2.975s-4.166,2.084-5.8.6c-1.205-1.095-3.847-1.7-5.165-1.949l-2.2,1.682,7.05,5.565.928-2.224A27.711,27.711,0,0,0,296,679.2a25.612,25.612,0,0,0,4.08-2.413,16.059,16.059,0,0,1,2.413-.928C303.788,675.492,303.788,674.38,303.415,673.268Z" transform="translate(-178.106 -660.383)" fill="#ff5f4d"/>
            <g id="Group_3068" data-name="Group 3068" transform="translate(81.886 14.608)">
              <path id="Path_1378" data-name="Path 1378" d="M283.442,677.14l3.947-3.228s6.638,1.436,7.354,7l-3.228,3.41Z" transform="translate(-262.061 -673.912)" fill="#f9fbfc"/>
              <path id="Path_1379" data-name="Path 1379" d="M274.732,694.177l21.526-19.91s9.689.538,10.764,8.609L285.5,707.632S274.732,705.479,274.732,694.177Z" transform="translate(-274.732 -673.395)" fill="#253c72"/>
              <path id="Path_1380" data-name="Path 1380" d="M281.03,705.54l21.526-24.756a8.61,8.61,0,0,0-2.472-5.079c-7.237,10.219-20.48,21.437-20.48,21.437l-1.8,7.207A14.673,14.673,0,0,0,281.03,705.54Z" transform="translate(-270.266 -671.304)" fill="#252f4c"/>
            </g>
            <g id="Group_3069" data-name="Group 3069" transform="translate(39.361 94.937)">
              <path id="Path_1381" data-name="Path 1381" d="M258.559,771.779l-.655,9a3.362,3.362,0,0,0,2.033,3.351,9.749,9.749,0,0,0,5.366.542c5.16-.793,7.539-3.569,8.334-5.157s11.108-8.729,9.92-12.3c-1.986-3.572-5.555,0-9.127,0S263.319,765.432,258.559,771.779Z" transform="translate(-256.702 -620.812)" fill="#171e26"/>
              <path id="Path_1382" data-name="Path 1382" d="M261.647,713.05s-2.381,60.706-1.191,79.75c0,0-4.762,47.612-2.381,58.922,0,0,8.331,5.95,15.472,1.191,1.787-.6,1.787-2.978,1.787-2.978s4.76-44.635,5.95-58.325,10.713-54.753,8.928-63.679S277.119,706.5,261.647,713.05Z" transform="translate(-257.408 -699.959)" fill="#171e26"/>
              <path id="Path_1383" data-name="Path 1383" d="M275.814,773.839s-3.272,10.116-.891,12.5a7.64,7.64,0,0,0,7.539,2.28,38.575,38.575,0,0,0,4.264-1.686l.695-2.082.793,1.389a9.49,9.49,0,0,0,2.779-1.092c1.586-.893,6.149-2.678,8.034-3.869s5.256-3.272,5.555-5.852c.2-2.58-9.026-1.687-11.508-1.586s-4.065-.893-4.959-.893-10.514,1.19-10.514,1.19" transform="translate(-233.191 -610.173)" fill="#171e26"/>
              <path id="Path_1384" data-name="Path 1384" d="M313.012,718.6s2.492,9.063,2.492,27.314-1.588,64.275-1.588,64.275-.793,46.819-1.586,58.723c0,0-5.555,7.141-15.077,1.586-4.762-5.552-3.176-9.522-3.176-9.522s-6.348-28.566-3.967-54.753c0,0-8.729-53.167-10.315-59.516s-29.27-9.092-18.45-40.071Z" transform="translate(-255.322 -706.636)" fill="#1f2f3f"/>
              <path id="Path_1385" data-name="Path 1385" d="M276.63,734.409S289.422,740,287.824,758.39s-4.8,30.378-3.2,41.569,4,17.589,2.4,31.178c-1.3,11.054-5.771,21.575-2.236,28.991a10.846,10.846,0,0,0,6.316-3.55c.793-11.9,1.586-58.723,1.586-58.723s1.588-46.024,1.588-64.275a158.538,158.538,0,0,0-.989-18.465l-19.854,8.9Z" transform="translate(-234.095 -694.301)" fill="#25437f"/>
            </g>
            <path id="Path_1386" data-name="Path 1386" d="M323.3,707.468a11.287,11.287,0,0,0-5.017-9.9c-7.266-4.846-17.149-10.99-23.546-14.368-7.944-4.2-16.174-8.611-20.571-9.021-12.257-1.142-19.631,10.261-18.472,25.235.7,9.1,3.127,19.24,6.434,29.653,1.409,4.441,2.357,12.3,2.72,19.525-.064,3.483-.373,7.44-1.33,9.738-1.984,4.762-3.967,23.806-3.967,23.806s13.489,13.886,30.947,15.077,24.2-2.379,24.2-2.379l1.191-7.936,2.379,7.141a5.824,5.824,0,0,0,3.572-4.365c.358-2.862-2.833-27.343-3.464-32.118,1.016-9.9,2.995-24.437,3.618-31.062C322.572,720.409,323.041,713.445,323.3,707.468Z" transform="translate(-220.714 -659.031)" fill="#25437f"/>
            <path id="Path_1387" data-name="Path 1387" d="M267.789,674.171s5.754,4.958,19.442,6.942l2.052,4.939a34.99,34.99,0,0,1-11.972.616c-6.743-.793-12.3-6.149-12.895-7.34l-.594-1.19Z" transform="translate(-208.717 -658.927)" fill="#f9fbfc"/>
          </g>
        </g>
        <path id="Path_1388" data-name="Path 1388" d="M262.7,674a12.978,12.978,0,0,1,9.991-11.991c9.993-2.8,11.194-1.6,13.99-3.6s6.4-2.4,11.591-.8,6,6.795,4.4,11.591-2.4,7.593-6.4,9.593-3.2,6.795-3.2,6.795.8,5.2-2,7.195l-2.4-6s-2,6.795-4,9.193-6.395,3.6-10.791,3.6S263.9,688.79,262.3,685.194s1.6-6.795,1.6-6.795A4.21,4.21,0,0,1,262.7,674Z" transform="translate(-211.581 -656.627)" fill="#25437f"/>
        <path id="Path_1389" data-name="Path 1389" d="M307.406,704.243c-4-9.591-18.386-7.195-37.572-14.387-9.23-3.464-10.5-8.773-9.333-13.354-3.623,4.593-5.42,11.493-4.806,19.417.7,9.1,3.127,19.24,6.434,29.653,1.409,4.438,2.357,12.3,2.72,19.525-.064,3.483-.373,7.44-1.33,9.738-1.983,4.762-3.967,23.806-3.967,23.806s13.489,13.886,30.947,15.077c9.738.665,16.138-.152,19.9-1.006,2.762-20.009-9.554-29.823-12.581-38.905C294.617,744.214,311.4,713.836,307.406,704.243Z" transform="translate(-220.713 -627.713)" fill="#252f4c"/>
        <path id="Path_1390" data-name="Path 1390" d="M294.81,660.327c-1.824-3.343-5.376-3.39-8.1-2.816l-.032.017c-2.8,2-4,.8-13.99,3.6a12.978,12.978,0,0,0-9.991,11.991,4.21,4.21,0,0,0,1.2,4.4s-3.2,3.2-1.6,6.795c1.083,2.435,4,8.162,7.131,11.611,6.179-1.075,8.9-6.164,7.791-9.48-1.6-4.8,3.729-.533,5.351-3.665s-5.351-5.393,1.576-11.79S298.009,666.189,294.81,660.327Z" transform="translate(-211.581 -655.743)" fill="#252f4c"/>
      </g>
      <g id="Group_3076" data-name="Group 3076" transform="translate(85.252 66.745)">
        <g id="Group_3073" data-name="Group 3073" transform="translate(75.267 33.999)">
          <path id="Path_1391" data-name="Path 1391" d="M306.765,707.442l3.368-.749s5.6-4.451,6.392-4.686,7.565-5.337,8.218-4.166-.1,2.2-1.075,2.848a27.829,27.829,0,0,1-2.931,1.532l-1.691,2.475a8.33,8.33,0,0,1,1.122,2.752,21.081,21.081,0,0,1-.093,2.406,4.372,4.372,0,0,1-.248,3.412,5.355,5.355,0,0,1-4.487,2.6c-1.407-.138-4.617-.4-4.617-.4l-2.187.3Z" transform="translate(-306.765 -697.667)" fill="#ff8e54"/>
          <path id="Path_1392" data-name="Path 1392" d="M319.755,707.134a3.982,3.982,0,0,0,.432-2.555c-.839.916-2,2-2.914,2.116-1.6.2-3.6,1.6-5-.6a16.061,16.061,0,0,0-4.2-4l-1.264-.218,1.65,7.755,2.187-.3s3.211.258,4.617.4A5.355,5.355,0,0,0,319.755,707.134Z" transform="translate(-306.694 -691.536)" fill="#ff5f4d"/>
        </g>
        <g id="Group_3075" data-name="Group 3075">
          <path id="Path_1393" data-name="Path 1393" d="M305.356,701.845l4.141-.712a7.911,7.911,0,0,1,3.361,6.029c.069,3.817-1.37,5.2-1.37,5.2l-3.373.417Z" transform="translate(-233.548 -658.626)" fill="#cbdceb"/>
          <g id="Group_3074" data-name="Group 3074">
            <path id="Path_1394" data-name="Path 1394" d="M288,683.817s4.323.788,7.62,8.2,14.3,32.854,16.992,34.951,35.366-1.642,35.366-1.642,6.451,4.175,4.924,9.527c-1.534,4.816-3.672,4.313-3.672,4.313s-32.089,7.46-38.476,8.078-9.087-2.008-10.7-3.054-14.748-26.45-17.468-30.677-9.851-19.056-4.593-24.457S288,683.817,288,683.817Z" transform="translate(-276.103 -683.817)" fill="#25437f"/>
            <path id="Path_1395" data-name="Path 1395" d="M349.225,738.643s2.138.5,3.672-4.313a6.044,6.044,0,0,0,.032-3.169c-3.714,1.149-8.977,2.673-14.412,3.9-10.1,2.266-23.065,4.674-32.167,1.6s-18.462-25.336-21.825-37.548a28.684,28.684,0,0,1-.272-14.927,18.274,18.274,0,0,0-6.265,4.355c-5.258,5.4,1.871,20.227,4.593,24.457s15.853,29.634,17.468,30.677,4.313,3.675,10.7,3.054S349.225,738.643,349.225,738.643Z" transform="translate(-276.103 -683.29)" fill="#252f4c"/>
          </g>
        </g>
      </g>
    </g>
    <g id="Group_3099" data-name="Group 3099" transform="translate(273.811 662.907)">
      <g id="Group_3083" data-name="Group 3083">
        <g id="Group_3078" data-name="Group 3078">
          <path id="Path_1396" data-name="Path 1396" d="M182.858,695.266l.649,228.94L313.944,848.9l-.649-228.94Z" transform="translate(-182.858 -619.958)" fill="#cbdceb"/>
        </g>
        <g id="Group_3082" data-name="Group 3082" transform="translate(12.547 6.974)">
          <g id="Group_3079" data-name="Group 3079" transform="translate(0 75.308)">
            <path id="Path_1397" data-name="Path 1397" d="M192.476,656.1l-4.507-2.619.649,228.94,4.507,2.62Z" transform="translate(-187.969 -653.477)" fill="#bdc5cb"/>
          </g>
          <g id="Group_3080" data-name="Group 3080">
            <path id="Path_1398" data-name="Path 1398" d="M322.913,625.418l-4.507-2.619L187.969,698.106l4.507,2.619Z" transform="translate(-187.969 -622.799)" fill="#fff"/>
          </g>
          <g id="Group_3081" data-name="Group 3081" transform="translate(4.507 2.619)">
            <path id="Path_1399" data-name="Path 1399" d="M189.805,699.174l.649,228.94,130.437-75.308-.649-228.94Z" transform="translate(-189.805 -623.866)" fill="#eaf1f7"/>
          </g>
        </g>
      </g>
      <g id="Group_3090" data-name="Group 3090" transform="translate(43.808 58.677)">
        <g id="Group_3084" data-name="Group 3084">
          <path id="Path_1400" data-name="Path 1400" d="M276.637,643.861l.009,3.295L200.714,691,200.7,687.7Z" transform="translate(-200.704 -643.861)" fill="#a6d0f4"/>
        </g>
        <g id="Group_3085" data-name="Group 3085" transform="translate(0.037 32.117)">
          <path id="Path_1401" data-name="Path 1401" d="M243.757,656.945l.009,3.277L200.728,685.07l-.009-3.277Z" transform="translate(-200.719 -656.945)" fill="#a6d0f4"/>
        </g>
        <g id="Group_3086" data-name="Group 3086" transform="translate(0.219 80.965)">
          <path id="Path_1402" data-name="Path 1402" d="M270.437,676.844l.009,3.277L200.8,720.33l-.009-3.277Z" transform="translate(-200.793 -676.844)" fill="#a6d0f4"/>
        </g>
        <g id="Group_3087" data-name="Group 3087" transform="translate(0.178 81.819)">
          <path id="Path_1403" data-name="Path 1403" d="M243.815,677.192l.009,3.277-43.038,24.848-.009-3.277Z" transform="translate(-200.777 -677.192)" fill="#a6d0f4"/>
        </g>
        <g id="Group_3088" data-name="Group 3088" transform="translate(0.141 62.064)">
          <path id="Path_1404" data-name="Path 1404" d="M255.284,669.144l.009,3.277L200.771,703.9l-.009-3.277Z" transform="translate(-200.762 -669.144)" fill="#a6d0f4"/>
        </g>
        <g id="Group_3089" data-name="Group 3089" transform="translate(0.078 60.08)">
          <path id="Path_1405" data-name="Path 1405" d="M220.5,668.336l.009,3.277-19.762,11.409-.009-3.277Z" transform="translate(-200.736 -668.336)" fill="#a6d0f4"/>
        </g>
      </g>
      <g id="Group_3093" data-name="Group 3093" transform="translate(34.595 188.821)">
        <g id="Group_3091" data-name="Group 3091" transform="translate(20.72)">
          <path id="Path_1406" data-name="Path 1406" d="M214.936,701.028c12.109-6.993,23.575-5.209,28.311,5.81,5.926,13.776-.813,36.983-15.082,53.033l-3.309-7.705c9.664-11.277,14.166-27.216,10.065-36.743-3.341-7.767-11.42-9.021-19.957-4.092a34.719,34.719,0,0,0-6.262,4.7l-3.309-7.706A49.858,49.858,0,0,1,214.936,701.028Z" transform="translate(-205.392 -696.878)" fill="#4385ff"/>
        </g>
        <g id="Group_3092" data-name="Group 3092" transform="translate(0 11.448)">
          <path id="Path_1407" data-name="Path 1407" d="M217.671,701.542l3.307,7.7c-.523.486-1.043.994-1.559,1.529-10.985,11.319-16.351,28.708-11.992,38.852q.239.545.511,1.056c.061.123.133.243.2.363,3.179,5.592,9.267,6.959,16.015,4.252a24.531,24.531,0,0,0,3.208-1.566c.29-.167.577-.341.867-.523.528-.326.93-.6,1.326-.869l.182-.128c.867-.611,1.726-1.276,2.595-2.018l.324-.282c.319-.28.638-.569.957-.864.118-.108.236-.216.353-.331q.626-.589,1.242-1.22c.665-.687,1.3-1.392,1.927-2.111l3.309,7.705c-.631.709-1.269,1.411-1.927,2.089-.589.6-1.178,1.183-1.775,1.743-.167.16-.331.319-.506.476-.452.42-.908.827-1.365,1.227-.155.138-.307.273-.459.4-1.227,1.043-2.462,2.006-3.689,2.865-.1.074-.194.138-.292.2-.562.4-1.124.761-1.679,1.115l-.194.118q-.574.357-1.146.687-1.362.788-2.712,1.429c-.68.322-1.321.594-1.959.852-10.3,4.084-19.515,1.507-23.639-8.089-6.186-14.385,1.434-39.065,17.009-55.119C216.63,702.548,217.151,702.038,217.671,701.542Z" transform="translate(-196.951 -701.542)" fill="#94c3ff"/>
        </g>
      </g>
      <g id="Group_3098" data-name="Group 3098" transform="translate(101.759 196.496)">
        <g id="Group_3094" data-name="Group 3094" transform="translate(24.872)">
          <path id="Path_1408" data-name="Path 1408" d="M234.446,705.8l0,1.664a1.274,1.274,0,0,0,1.91,1.1l7.855-4.524a1.274,1.274,0,0,0,.638-1.1v-1.662a1.274,1.274,0,0,0-1.91-1.1l-7.855,4.524A1.276,1.276,0,0,0,234.446,705.8Z" transform="translate(-234.444 -700.005)" fill="#94c3ff"/>
        </g>
        <g id="Group_3095" data-name="Group 3095" transform="translate(0 8.269)">
          <path id="Path_1409" data-name="Path 1409" d="M224.312,723.41v1.664a1.275,1.275,0,0,0,1.907,1.107l32.724-18.762a1.273,1.273,0,0,0,.641-1.1v-1.664a1.275,1.275,0,0,0-1.907-1.107l-32.724,18.762A1.273,1.273,0,0,0,224.312,723.41Z" transform="translate(-224.312 -703.374)" fill="#94c3ff"/>
        </g>
        <g id="Group_3096" data-name="Group 3096" transform="translate(13.489 24.822)" opacity="0.53">
          <path id="Path_1410" data-name="Path 1410" d="M229.807,722.418v1.667a1.273,1.273,0,0,0,1.9,1.1l19.235-11.027a1.271,1.271,0,0,0,.638-1.1v-1.667a1.272,1.272,0,0,0-1.9-1.1l-19.233,11.027A1.269,1.269,0,0,0,229.807,722.418Z" transform="translate(-229.807 -710.117)" fill="#94c3ff"/>
        </g>
        <g id="Group_3097" data-name="Group 3097" transform="translate(5.072 16.547)">
          <path id="Path_1411" data-name="Path 1411" d="M226.38,723.871l0,1.667a1.274,1.274,0,0,0,1.907,1.1l27.65-15.853a1.265,1.265,0,0,0,.641-1.1v-1.667a1.272,1.272,0,0,0-1.9-1.1l-27.653,15.85A1.274,1.274,0,0,0,226.38,723.871Z" transform="translate(-226.378 -706.745)" fill="#94c3ff"/>
        </g>
      </g>
    </g>
  </g>
</svg>
