<svg xmlns="http://www.w3.org/2000/svg" width="20" height="19" viewBox="0 0 20 19">
  <g id="dot.status" fill="#1e4897">
    <path d="M 10 17.5 C 5.313079833984375 17.5 1.5 13.91121006011963 1.5 9.5 C 1.5 5.088789939880371 5.313079833984375 1.5 10 1.5 C 14.68692016601562 1.5 18.5 5.088789939880371 18.5 9.5 C 18.5 13.91121006011963 14.68692016601562 17.5 10 17.5 Z" stroke="none"/>
    <path d="M 10 3 C 6.140190124511719 3 3 5.915889739990234 3 9.5 C 3 13.08411026000977 6.140190124511719 16 10 16 C 13.85980987548828 16 17 13.08411026000977 17 9.5 C 17 5.915889739990234 13.85980987548828 3 10 3 M 10 0 C 15.52285003662109 0 20 4.253299713134766 20 9.5 C 20 14.74670028686523 15.52285003662109 19 10 19 C 4.477149963378906 19 0 14.74670028686523 0 9.5 C 0 4.253299713134766 4.477149963378906 0 10 0 Z" stroke="none" fill="#fff"/>
  </g>
</svg>
