<svg xmlns="http://www.w3.org/2000/svg" width="27.999" height="18.666" viewBox="0 0 27.999 18.666">
  <g id="Group_3103" data-name="Group 3103" transform="translate(0 -85.333)">
    <g id="Group_3102" data-name="Group 3102" transform="translate(0 85.333)">
      <path id="Path_1423" data-name="Path 1423" d="M26.563,85.333H1.436A1.44,1.44,0,0,0,0,86.769v15.794A1.44,1.44,0,0,0,1.436,104H26.563A1.44,1.44,0,0,0,28,102.563V86.769A1.44,1.44,0,0,0,26.563,85.333Zm-.539,1.077-11.2,8.4a1.5,1.5,0,0,1-1.652,0l-11.2-8.4Zm-5.982,8.954,6.1,7.538c.006.008.014.013.02.02H1.834c.006-.007.014-.013.02-.02l6.1-7.538a.539.539,0,0,0-.837-.678l-6.043,7.465V87.083l11.451,8.588a2.57,2.57,0,0,0,2.943,0l11.451-8.588v15.068l-6.043-7.465a.539.539,0,0,0-.837.678Z" transform="translate(0 -85.333)" fill="#afafaf"/>
    </g>
  </g>
</svg>
