<svg xmlns="http://www.w3.org/2000/svg" width="23.875" height="23.875" viewBox="0 0 23.875 23.875">
  <path id="Icon_awesome-user-circle" data-name="Icon awesome-user-circle" d="M11.937.563A11.938,11.938,0,1,0,23.875,12.5,11.935,11.935,0,0,0,11.937.563Zm0,4.621A4.236,4.236,0,1,1,7.7,9.419,4.236,4.236,0,0,1,11.937,5.183Zm0,16.558a9.224,9.224,0,0,1-7.052-3.283,5.367,5.367,0,0,1,4.741-2.878,1.178,1.178,0,0,1,.342.053,6.373,6.373,0,0,0,1.969.332,6.349,6.349,0,0,0,1.969-.332,1.178,1.178,0,0,1,.342-.053,5.367,5.367,0,0,1,4.741,2.878A9.224,9.224,0,0,1,11.937,21.742Z" transform="translate(0 -0.563)" fill="#1e4897"/>
</svg>
