<svg xmlns="http://www.w3.org/2000/svg" width="22.483" height="13.958" viewBox="0 0 22.483 13.958">
  <g id="google-plus-logo" transform="translate(0 -96)">
    <g id="Group_2168" data-name="Group 2168" transform="translate(15.354 98.792)">
      <g id="Group_2167" data-name="Group 2167">
        <path id="Path_1289" data-name="Path 1289" d="M356.188,162.792V160h-1.4v2.792H352v1.4h2.792v2.792h1.4v-2.792h2.792v-1.4Z" transform="translate(-352 -160)" fill="#fff" stroke="#fff" stroke-width="0.3"/>
      </g>
    </g>
    <g id="Group_2170" data-name="Group 2170" transform="translate(0 96)">
      <g id="Group_2169" data-name="Group 2169" transform="translate(0 0)">
        <path id="Path_1290" data-name="Path 1290" d="M6.979,101.583v2.792h3.949a4.188,4.188,0,1,1-3.949-5.583A4.125,4.125,0,0,1,9.691,99.8l1.834-2.1A6.917,6.917,0,0,0,6.979,96a6.979,6.979,0,1,0,6.979,6.979v-1.4Z" transform="translate(0 -96)" fill="#fff"/>
      </g>
    </g>
  </g>
</svg>
