<svg xmlns="http://www.w3.org/2000/svg" width="27.667" height="27.667" viewBox="0 0 27.667 27.667">
  <g id="gps" opacity="0.6">
    <g id="Group_12073" data-name="Group 12073" transform="translate(9.799 9.799)">
      <g id="Group_12072" data-name="Group 12072">
        <path id="Path_29763" data-name="Path 29763" d="M140.035,136a4.035,4.035,0,1,0,4.035,4.035A4.04,4.04,0,0,0,140.035,136Zm0,5.764a1.729,1.729,0,1,1,1.729-1.729A1.731,1.731,0,0,1,140.035,141.764Z" transform="translate(-136 -136)" fill="#1c1c1c"/>
      </g>
    </g>
    <g id="Group_12075" data-name="Group 12075">
      <g id="Group_12074" data-name="Group 12074">
        <path id="Path_29764" data-name="Path 29764" d="M26.514,12.68H24.14a10.389,10.389,0,0,0-9.154-9.154V1.153a1.153,1.153,0,0,0-2.306,0V3.526A10.389,10.389,0,0,0,3.526,12.68H1.153a1.153,1.153,0,0,0,0,2.306H3.526A10.389,10.389,0,0,0,12.68,24.14v2.374a1.153,1.153,0,0,0,2.306,0V24.14a10.389,10.389,0,0,0,9.154-9.154h2.374a1.153,1.153,0,0,0,0-2.306ZM13.833,21.9A8.069,8.069,0,1,1,21.9,13.833,8.078,8.078,0,0,1,13.833,21.9Z" fill="#1c1c1c"/>
      </g>
    </g>
  </g>
</svg>
