<svg xmlns="http://www.w3.org/2000/svg" width="695.843" height="475.999" viewBox="0 0 695.843 475.999">
  <g id="Group_12158" data-name="Group 12158" transform="translate(-58.94 -365.499)">
    <g id="Group_12157" data-name="Group 12157" transform="translate(58.94 365.499)">
      <g id="Group_12136" data-name="Group 12136" transform="translate(0 0)">
        <g id="Group_12131" data-name="Group 12131" transform="translate(59.551)" opacity="0.41">
          <g id="Group_12130" data-name="Group 12130">
            <path id="Path_29773" data-name="Path 29773" d="M1297.805,432.067c3.378-75.418-33.959-140.194-90.317-176.695a41.993,41.993,0,0,1-18.813-30.618c-.077-.676-.156-1.354-.241-2.033-10.334-82.807-87.728-140.979-170.161-129.763-78.857,10.73-135.618,52.4-127.235,132.639.04.377.086.924.133,1.62a38.321,38.321,0,0,1-37.542,40.769q-6.874.166-13.833.887c-94.07,9.831-162.315,94.369-152.3,188.753A171.116,171.116,0,0,0,742.217,565.9h490.37C1269.862,530.233,1295.625,480.748,1297.805,432.067Z" transform="translate(-686.523 -91.574)" fill="#c5d9ff"/>
          </g>
        </g>
        <path id="Path_29774" data-name="Path 29774" d="M776.078,165.854A20.274,20.274,0,1,1,755.8,145.578,20.272,20.272,0,0,1,776.078,165.854Z" transform="translate(-593.778 -54.994)" fill="#c5d9ff" opacity="0.31"/>
        <path id="Path_29775" data-name="Path 29775" d="M1033.852,118.788a17.807,17.807,0,1,1-17.81-17.8A17.809,17.809,0,0,1,1033.852,118.788Z" transform="translate(-415.833 -85.2)" fill="#c5d9ff" opacity="0.31"/>
        <path id="Path_29776" data-name="Path 29776" d="M1075.655,219.944a12.118,12.118,0,1,1-12.117-12.115A12.117,12.117,0,0,1,1075.655,219.944Z" transform="translate(-379.813 -12.829)" fill="#c5d9ff" opacity="0.31"/>
        <path id="Path_29777" data-name="Path 29777" d="M675.249,312.441a12.115,12.115,0,1,1-12.116-12.117A12.115,12.115,0,0,1,675.249,312.441Z" transform="translate(-651.02 49.822)" fill="#c5d9ff" opacity="0.31"/>
        <g id="Group_12135" data-name="Group 12135" transform="translate(104.545 69.798)">
          <g id="Group_12134" data-name="Group 12134">
            <g id="Group_12133" data-name="Group 12133">
              <g id="Group_12132" data-name="Group 12132">
                <path id="Path_29778" data-name="Path 29778" d="M1234.678,423.574c2.88-64.319-28.961-119.564-77.029-150.694a35.827,35.827,0,0,1-16.047-26.111c-.062-.577-.133-1.157-.2-1.734-8.814-70.623-74.821-120.235-145.127-110.668-67.247,9.15-115.66,44.684-108.509,113.118.035.322.07.792.112,1.384a32.681,32.681,0,0,1-32.019,34.77q-5.86.141-11.8.757c-80.231,8.385-138.424,80.484-129.882,160.98a145.923,145.923,0,0,0,46.659,92.343h418.217C1210.846,507.3,1232.816,465.09,1234.678,423.574Z" transform="translate(-713.348 -133.186)" fill="#c5d9ff"/>
              </g>
            </g>
          </g>
        </g>
      </g>
      <g id="Group_12151" data-name="Group 12151" transform="translate(122.102 146.178)">
        <g id="Group_12149" data-name="Group 12149">
          <g id="Group_12142" data-name="Group 12142">
            <g id="Group_12137" data-name="Group 12137" transform="translate(52.942)">
              <path id="Path_29779" data-name="Path 29779" d="M1159.391,457.82H756V187.531a8.189,8.189,0,0,1,8.189-8.187H1151.2a8.188,8.188,0,0,1,8.187,8.187Z" transform="translate(-754.957 -178.301)" fill="#ecf1f7"/>
              <path id="Path_29780" data-name="Path 29780" d="M1160.854,459.286H755.378V187.956a9.241,9.241,0,0,1,9.23-9.234h387.017a9.242,9.242,0,0,1,9.229,9.234ZM757.461,457.2h401.306V187.956a7.152,7.152,0,0,0-7.142-7.149H764.608a7.158,7.158,0,0,0-7.147,7.149Z" transform="translate(-755.378 -178.722)" fill="#243762"/>
            </g>
            <g id="Group_12138" data-name="Group 12138" transform="translate(228.743 263.083)">
              <rect id="Rectangle_17527" data-name="Rectangle 17527" width="51.791" height="4.143" transform="translate(1.043 1.044)" fill="#ecf1f7"/>
              <path id="Path_29781" data-name="Path 29781" d="M914.062,341.795H860.187v-6.228h53.875Zm-51.786-2.085h49.7v-2.056h-49.7Z" transform="translate(-860.187 -335.567)" fill="#243762"/>
            </g>
            <g id="Group_12139" data-name="Group 12139" transform="translate(251.491 8.524)">
              <path id="Path_29782" data-name="Path 29782" d="M880.665,187.415a3.152,3.152,0,1,1-3.146-2.989A3.072,3.072,0,0,1,880.665,187.415Z" transform="translate(-873.328 -183.383)" fill="#ecf1f7"/>
              <path id="Path_29783" data-name="Path 29783" d="M877.939,191.867a4.034,4.034,0,1,1,4.188-4.031A4.119,4.119,0,0,1,877.939,191.867Zm0-5.976a1.951,1.951,0,1,0,2.107,1.946A2.031,2.031,0,0,0,877.939,185.891Z" transform="translate(-873.749 -183.804)" fill="#243762"/>
            </g>
            <g id="Group_12141" data-name="Group 12141" transform="translate(0 309.017)">
              <g id="Group_12140" data-name="Group 12140">
                <path id="Path_29784" data-name="Path 29784" d="M1223.5,381.931H734.058c-5.317,0-9.62-2.877-9.62-6.423V365.384c0-1,1.213-1.81,2.709-1.81h503.679c1.494,0,2.709.81,2.709,1.81v9.843C1233.536,378.928,1229.042,381.931,1223.5,381.931Z" transform="translate(-723.392 -362.531)" fill="#1e4897"/>
                <path id="Path_29785" data-name="Path 29785" d="M1223.925,383.4H734.481c-5.983,0-10.666-3.281-10.666-7.468V365.805c0-1.6,1.654-2.853,3.756-2.853H1231.25c2.107,0,3.754,1.253,3.754,2.853v9.844C1235,379.99,1230.134,383.4,1223.925,383.4ZM727.571,365.039c-1.035,0-1.667.5-1.667.767v10.123c0,2.919,3.928,5.383,8.578,5.383h489.444c4.873,0,8.992-2.593,8.992-5.661v-9.844c0-.27-.634-.767-1.667-.767Z" transform="translate(-723.815 -362.952)" fill="#1e4897"/>
              </g>
            </g>
          </g>
          <g id="Group_12146" data-name="Group 12146" transform="translate(70.819 22.154)">
            <g id="Group_12145" data-name="Group 12145">
              <g id="Group_12143" data-name="Group 12143">
                <path id="Rectangle_17528" data-name="Rectangle 17528" d="M5.343,0H362.39a5.343,5.343,0,0,1,5.343,5.343V230.118a5.343,5.343,0,0,1-5.343,5.343H5.344A5.344,5.344,0,0,1,0,230.117V5.343A5.343,5.343,0,0,1,5.343,0Z" transform="translate(0.994 0.995)" fill="#fff"/>
                <path id="Path_29786" data-name="Path 29786" d="M1125.8,429.38H775.994a9.97,9.97,0,0,1-9.958-9.955V201.888a9.972,9.972,0,0,1,9.958-9.958H1125.8a9.968,9.968,0,0,1,9.955,9.958V419.425A9.967,9.967,0,0,1,1125.8,429.38ZM775.994,193.921a7.976,7.976,0,0,0-7.967,7.967V419.425a7.977,7.977,0,0,0,7.967,7.967H1125.8a7.978,7.978,0,0,0,7.967-7.967V201.888a7.977,7.977,0,0,0-7.967-7.967Z" transform="translate(-766.036 -191.93)" fill="#243762"/>
              </g>
              <g id="Group_12144" data-name="Group 12144" transform="translate(2.192 2.348)">
                <path id="Path_29787" data-name="Path 29787" d="M1132.254,207.742v-6.218c0-4.525-3.984-8.194-8.892-8.194H776.234c-4.911,0-8.892,3.668-8.892,8.194v6.245Z" transform="translate(-767.343 -193.33)" fill="#94c3ff"/>
                <path id="Path_29788" data-name="Path 29788" d="M968.188,198.705a2.072,2.072,0,1,1-2.072-2.072A2.07,2.07,0,0,1,968.188,198.705Z" transform="translate(-634.108 -191.092)" fill="#fff"/>
                <path id="Path_29789" data-name="Path 29789" d="M973.129,198.705a2.072,2.072,0,1,1-2.072-2.072A2.071,2.071,0,0,1,973.129,198.705Z" transform="translate(-630.763 -191.092)" fill="#fff"/>
                <path id="Path_29790" data-name="Path 29790" d="M978.068,198.705A2.072,2.072,0,1,1,976,196.634,2.069,2.069,0,0,1,978.068,198.705Z" transform="translate(-627.416 -191.092)" fill="#fff"/>
              </g>
            </g>
          </g>
          <rect id="Rectangle_17529" data-name="Rectangle 17529" width="302.156" height="163.326" transform="translate(103.108 64.874)" fill="#c5d9ff" opacity="0.43"/>
          <g id="Group_12147" data-name="Group 12147" transform="translate(2.085 277.684)">
            <path id="Path_29791" data-name="Path 29791" d="M778.3,344.894,725.376,376h0l504.822-.221-48.754-30.754Z" transform="translate(-724.848 -343.851)" fill="#ecf1f7"/>
            <path id="Path_29792" data-name="Path 29792" d="M725.865,377.463h-.282l-.005-1.052-.52-.891,53.173-31.249h.28l403.443.129,52.06,32.837Zm52.93-31.1-49.378,29.016,497.384-.218-45.448-28.669Z" transform="translate(-725.058 -344.272)" fill="#243762"/>
          </g>
          <g id="Group_12148" data-name="Group 12148" transform="translate(83.376 277.684)" opacity="0.26">
            <path id="Path_29793" data-name="Path 29793" d="M811,344.894l-35.186,20.678h0l335.615-.148-32.415-20.445Z" transform="translate(-771.973 -343.851)" fill="#ecf1f7"/>
            <path id="Path_29794" data-name="Path 29794" d="M773.522,367.04l38.745-22.768,268.6.086,35.716,22.53Zm39.312-20.682L781.2,364.949l328.172-.143-29.109-18.362Z" transform="translate(-773.522 -344.272)" fill="#243762"/>
          </g>
        </g>
        <g id="Group_12150" data-name="Group 12150" transform="translate(174.078 111.015)">
          <path id="Path_29795" data-name="Path 29795" d="M862.026,266.82a3.132,3.132,0,0,1-3.132-3.132,12.519,12.519,0,1,0-25.038,0,3.13,3.13,0,1,1-6.26,0,18.779,18.779,0,1,1,37.557,0A3.131,3.131,0,0,1,862.026,266.82Z" transform="translate(-827.597 -244.907)" fill="#243762"/>
          <path id="Path_29796" data-name="Path 29796" d="M936.733,266.82a3.129,3.129,0,0,1-3.128-3.132,12.52,12.52,0,0,0-25.039,0,3.131,3.131,0,1,1-6.261,0,18.779,18.779,0,1,1,37.557,0A3.129,3.129,0,0,1,936.733,266.82Z" transform="translate(-776.995 -244.907)" fill="#243762"/>
          <path id="Path_29797" data-name="Path 29797" d="M897.226,320.187a52.59,52.59,0,0,1-52.284-51.141,4.213,4.213,0,0,1,4.207-4.287H949.527v3.13A52.362,52.362,0,0,1,897.226,320.187ZM851.3,271.017a46.038,46.038,0,0,0,91.863,0Z" transform="translate(-815.849 -231.46)" fill="#243762"/>
        </g>
        <path id="Path_29798" data-name="Path 29798" d="M1099.174,203.468H817.429a1.09,1.09,0,1,1,0-2.181h281.745a1.09,1.09,0,0,1,0,2.181Z" transform="translate(-661.148 -163.438)" fill="#243762"/>
      </g>
      <g id="Group_12153" data-name="Group 12153" transform="translate(484.457 76.524)">
        <g id="Group_12152" data-name="Group 12152" transform="translate(19.028)">
          <path id="Path_29799" data-name="Path 29799" d="M951.781,208.31V172.445c0-19.108,14.073-34.656,31.363-34.656H1008.5c17.293,0,31.366,15.547,31.366,34.656V208.31c0,19.108-14.073,34.654-31.366,34.654H983.144C965.854,242.963,951.781,227.418,951.781,208.31Zm31.363-54.188c-9.142,0-16.582,8.221-16.582,18.323V208.31c0,10.1,7.441,18.323,16.582,18.323H1008.5c9.143,0,16.582-8.221,16.582-18.323V172.445c0-10.1-7.439-18.323-16.582-18.323Z" transform="translate(-950.786 -136.794)" fill="#1e4897"/>
          <path id="Path_29800" data-name="Path 29800" d="M1008.9,244.36H983.545c-17.842,0-32.358-15.993-32.358-35.649V172.846c0-19.658,14.516-35.65,32.358-35.65H1008.9c17.844,0,32.361,15.992,32.361,35.65v35.865C1041.259,228.366,1026.742,244.36,1008.9,244.36ZM983.545,139.185c-16.747,0-30.368,15.1-30.368,33.661v35.865c0,18.56,13.622,33.658,30.368,33.658H1008.9c16.745,0,30.372-15.1,30.372-33.658V172.846c0-18.56-13.627-33.661-30.372-33.661Zm25.353,88.844H983.545c-9.692,0-17.577-8.667-17.577-19.318V172.846c0-10.651,7.885-19.318,17.577-19.318H1008.9c9.692,0,17.577,8.667,17.577,19.318v35.865C1026.475,219.362,1018.59,228.029,1008.9,228.029Zm-25.353-72.512c-8.6,0-15.589,7.773-15.589,17.329v35.865c0,9.554,6.993,17.329,15.589,17.329H1008.9c8.6,0,15.588-7.774,15.588-17.329V172.846c0-9.556-6.991-17.329-15.588-17.329Z" transform="translate(-951.188 -137.196)" fill="#fff"/>
        </g>
        <path id="Rectangle_17530" data-name="Rectangle 17530" d="M8.9,0H119.23a8.9,8.9,0,0,1,8.9,8.9V97.472a8.9,8.9,0,0,1-8.9,8.9H8.9a8.9,8.9,0,0,1-8.9-8.9V8.9A8.9,8.9,0,0,1,8.9,0Z" transform="translate(0 59.323)" fill="#f7cb17"/>
        <path id="Path_29801" data-name="Path 29801" d="M1023.862,271.132H987.875a.995.995,0,1,1,0-1.989h35.987a11.267,11.267,0,0,0,11.255-11.253V186.545a.995.995,0,1,1,1.989,0v71.344A13.26,13.26,0,0,1,1023.862,271.132Z" transform="translate(-907.985 -104.444)" fill="#243762"/>
        <path id="Rectangle_17531" data-name="Rectangle 17531" d="M8.9,0H101.7a8.9,8.9,0,0,1,8.9,8.9V73.464a8.9,8.9,0,0,1-8.9,8.9H8.9a8.9,8.9,0,0,1-8.9-8.9V8.9A8.9,8.9,0,0,1,8.9,0Z" transform="translate(8.763 73.874)" fill="#fff" opacity="0.25"/>
        <path id="Path_29802" data-name="Path 29802" d="M969.119,204.816a14.959,14.959,0,1,1,19.29,14.246V238.41h-8.664V219.062A14.909,14.909,0,0,1,969.119,204.816Z" transform="translate(-920.014 -101.525)" fill="#243762"/>
      </g>
      <path id="Path_29803" data-name="Path 29803" d="M1283.811,376.7H704.542a1.669,1.669,0,0,1,0-3.338h579.269a1.669,1.669,0,1,1,0,3.338Z" transform="translate(-615.896 99.296)" fill="#243762"/>
      <g id="Group_12156" data-name="Group 12156" transform="translate(588.201 115.572)">
        <path id="Path_29804" data-name="Path 29804" d="M1049.891,189.877a24.1,24.1,0,1,1-24.1-24.1A24.1,24.1,0,0,1,1049.891,189.877Z" transform="translate(-1001.694 -156.883)" fill="#2d67c4"/>
        <path id="Path_29805" data-name="Path 29805" d="M1002.574,216.295a1.045,1.045,0,1,1,1.478-1.478,30.621,30.621,0,1,0,0-43.3,1.044,1.044,0,0,1-1.476-1.476,32.708,32.708,0,1,1-.005,46.256Z" transform="translate(-1001.304 -160.475)" fill="#243762"/>
        <g id="Group_12155" data-name="Group 12155" transform="translate(20.571 20.877)">
          <g id="Group_12154" data-name="Group 12154">
            <path id="Path_29806" data-name="Path 29806" d="M1017.14,198.146a3.228,3.228,0,0,1-2.285-.84,2.683,2.683,0,0,1-.9-2.033,2.592,2.592,0,0,1,.909-2.043,3.317,3.317,0,0,1,2.273-.8,3.245,3.245,0,0,1,2.271.805,2.637,2.637,0,0,1,.881,2.035,2.7,2.7,0,0,1-.874,2.06A3.211,3.211,0,0,1,1017.14,198.146Zm2.744-22.83-.49,12.5a2.3,2.3,0,0,1-2.3,2.212h0a2.3,2.3,0,0,1-2.3-2.216l-.466-12.5a2.3,2.3,0,0,1,2.3-2.39h.959A2.3,2.3,0,0,1,1019.884,175.316Z" transform="translate(-1013.958 -172.922)" fill="#fff"/>
          </g>
        </g>
      </g>
    </g>
  </g>
</svg>
