<svg id="Group_12121" data-name="Group 12121" xmlns="http://www.w3.org/2000/svg" width="19.343" height="27.583" viewBox="0 0 19.343 27.583">
  <path id="Path_28562" data-name="Path 28562" d="M20.708,0h11.72L38.64,7.734V25.86a1.581,1.581,0,0,1-1.379,1.724H20.708a1.581,1.581,0,0,1-1.379-1.724V1.724A1.581,1.581,0,0,1,20.708,0Z" transform="translate(-19.329 0)" fill="#f34646"/>
  <path id="Path_28563" data-name="Path 28563" d="M210.129,7.911h-5.448a1.725,1.725,0,0,1-1.724-1.724L203.976.225Z" transform="translate(-190.786 -0.169)" fill="#b53939"/>
  <path id="Path_28564" data-name="Path 28564" d="M98.7,136.412a.5.5,0,0,0,0-.992H97.06a.514.514,0,0,0-.5.56v4.042c0,.36.205.56.483.56s.482-.2.482-.56v-1.109h.995a.467.467,0,0,0,.463-.5.458.458,0,0,0-.463-.49h-.995v-1.508Zm-5.559-.992h-1.2a.532.532,0,0,0-.559.557v4.049a.53.53,0,0,0,.572.542h1.263a2.342,2.342,0,0,0,2.482-2.5A2.4,2.4,0,0,0,93.146,135.42Zm.058,4.15H92.47v-3.151h.661c1,0,1.436.672,1.436,1.6C94.567,138.883,94.139,139.57,93.2,139.57ZM88.8,135.42H87.6a.5.5,0,0,0-.525.56v4.042a.508.508,0,1,0,1.01,0v-1.18h.747a1.632,1.632,0,0,0,1.683-1.7A1.651,1.651,0,0,0,88.8,135.42Zm-.02,2.474h-.687v-1.525h.687a.766.766,0,0,1,0,1.525Z" transform="translate(-83.098 -123.343)" fill="#fff"/>
</svg>
