<svg id="plus" xmlns="http://www.w3.org/2000/svg" width="34" height="34" viewBox="0 0 34 34">
  <path id="Path_29767" data-name="Path 29767" d="M17,0A17,17,0,1,0,34,17,17.019,17.019,0,0,0,17,0Zm0,0" fill="#1e4897"/>
  <path id="Path_29768" data-name="Path 29768" d="M138.96,132.939h-6.021v6.021a1.417,1.417,0,0,1-2.833,0v-6.021h-6.021a1.417,1.417,0,1,1,0-2.833h6.021v-6.021a1.417,1.417,0,0,1,2.833,0v6.021h6.021a1.417,1.417,0,1,1,0,2.833Zm0,0" transform="translate(-114.522 -114.522)" fill="#fafafa"/>
</svg>
