<svg xmlns="http://www.w3.org/2000/svg" width="59" height="59" viewBox="0 0 59 59">
  <g id="Group_12265" data-name="Group 12265" transform="translate(-10688.5 328)">
    <circle id="Ellipse_17" data-name="Ellipse 17" cx="29.5" cy="29.5" r="29.5" transform="translate(10688.5 -328)" fill="#afafaf" opacity="0.63"/>
    <path id="ic_settings_24px" d="M26.488,17.073a10.411,10.411,0,0,0,.1-1.345,10.412,10.412,0,0,0-.1-1.345l2.978-2.265a.68.68,0,0,0,.169-.879l-2.823-4.75a.719.719,0,0,0-.861-.3L22.437,7.56a10.384,10.384,0,0,0-2.385-1.345l-.536-3.638A.682.682,0,0,0,18.824,2H13.179a.682.682,0,0,0-.692.577l-.536,3.638A10.92,10.92,0,0,0,9.566,7.56L6.052,6.187a.7.7,0,0,0-.861.3l-2.823,4.75a.665.665,0,0,0,.169.879l2.978,2.265a10.6,10.6,0,0,0-.1,1.345,10.6,10.6,0,0,0,.1,1.345L2.538,19.338a.68.68,0,0,0-.169.879l2.823,4.75a.719.719,0,0,0,.861.3L9.566,23.9a10.384,10.384,0,0,0,2.385,1.345l.536,3.638a.682.682,0,0,0,.692.577h5.645a.682.682,0,0,0,.692-.577l.536-3.638A10.92,10.92,0,0,0,22.437,23.9l3.514,1.373a.7.7,0,0,0,.861-.3l2.823-4.75a.68.68,0,0,0-.169-.879ZM16,20.532a4.807,4.807,0,1,1,4.94-4.8A4.879,4.879,0,0,1,16,20.532Z" transform="translate(10702.229 -314)" fill="#fff"/>
  </g>
</svg>
