<svg xmlns="http://www.w3.org/2000/svg" width="112" height="112" viewBox="0 0 112 112">
  <g id="Group_12264" data-name="Group 12264" transform="translate(-1388 -160)">
    <circle id="photo-document-passport-id-mature-caucasian-man-suit-white-shirt-126121929" cx="56" cy="56" r="56" transform="translate(1388 160)" fill="rgba(133,135,140,0.35)"/>
    <g id="Group_12112" data-name="Group 12112" transform="translate(1344.345 99.3)">
      <path id="Path_29173" data-name="Path 29173" d="M118.106,95.131a2.717,2.717,0,0,0-2.442-1.431H78.438a2.686,2.686,0,0,0-2.108.918,2.926,2.926,0,0,0-.672,1.906v33.79c0,.5-.005.994,0,1.491a2.856,2.856,0,0,0,.306,1.251c0,.005.005.011.011.016a2.707,2.707,0,0,0,1.961,1.42,4.2,4.2,0,0,0,.584.038h25.575a3.774,3.774,0,0,1-1.671-.8,3.606,3.606,0,0,1-1.2-1.934H78.389v-6.653l5.1-5.053c.513.508,1.021,1.016,1.535,1.524q1.991,1.983,3.982,3.955c.306.3.606.606.912.907a1.39,1.39,0,0,0,1.934,0c.606-.606,1.218-1.213,1.824-1.819q2.2-2.18,4.386-4.364,2.655-2.638,5.309-5.282,2.294-2.286,4.588-4.566c.432-.426.874-.852,1.306-1.278.557.546,1.109,1.1,1.666,1.644q2.1,2.073,4.19,4.146c.191.186.377.377.568.563v2.136a3.933,3.933,0,0,1,.574.513h0c.415.464.8.929,1.174,1.377.18.218.35.426.524.628l.453.535V97.24A4.44,4.44,0,0,0,118.106,95.131ZM91.57,104.576a2.4,2.4,0,1,1,.005-.011v.011Z" transform="translate(0)" fill="#172b4d"/>
      <path id="Path_29174" data-name="Path 29174" d="M610.9,581.346a.968.968,0,0,1-.645.257h-3.829v4.763c0,.6.027,1.213,0,1.813a1.123,1.123,0,0,1-.109.448c-.011.016-.016.033-.027.049a.31.31,0,0,1-.033.044c-.011.017-.022.027-.033.044h0a.129.129,0,0,1-.038.038.681.681,0,0,1-.12.1.532.532,0,0,1-.093.055,1.283,1.283,0,0,1-.153.06c-.033.011-.071.022-.109.033a2.836,2.836,0,0,1-.655.06c-.2,0-.393-.011-.574-.011h-5.823c-.109,0-.224.005-.339.005-.055,0-.109,0-.169-.005a.95.95,0,0,1-.918-.923c-.006-.06,0-.126,0-.191v-6.391h-4.4a1.235,1.235,0,0,1-.432-.077.885.885,0,0,1-.6-.847c0-.393.317-.694.557-.978q2.622-3.1,5.244-6.2c.847-1,1.688-2,2.535-3l.628-.743a.284.284,0,0,1,.038-.044.259.259,0,0,1,.038-.038l.038-.038.082-.065a.781.781,0,0,1,.087-.055.7.7,0,0,1,.093-.044l.1-.033a.707.707,0,0,1,.147-.027.591.591,0,0,1,.1-.005.96.96,0,0,1,.279.044l.093.033a.887.887,0,0,1,.322.235c.5.552.972,1.136,1.448,1.71.066.076.126.153.191.229q1.27,1.5,2.54,3l.443.524,4.048,4.785a.567.567,0,0,1,.186.235A.96.96,0,0,1,610.9,581.346Z" transform="translate(-487.951 -449.716)" fill="#172b4d"/>
    </g>
  </g>
</svg>
