<svg id="Group_2795" data-name="Group 2795" xmlns="http://www.w3.org/2000/svg" width="21.621" height="21.621" viewBox="0 0 21.621 21.621">
  <path id="Path_5" data-name="Path 5" d="M-129.545,4.977A10.769,10.769,0,0,0-133.653,2.4a6.248,6.248,0,0,0,2.714-5.15A6.257,6.257,0,0,0-137.189-9a6.257,6.257,0,0,0-6.25,6.25,6.248,6.248,0,0,0,2.714,5.15,10.769,10.769,0,0,0-4.108,2.577A10.74,10.74,0,0,0-148,12.621h1.689A9.132,9.132,0,0,1-137.189,3.5a9.132,9.132,0,0,1,9.121,9.121h1.689A10.74,10.74,0,0,0-129.545,4.977Zm-7.644-3.166A4.566,4.566,0,0,1-141.75-2.75a4.566,4.566,0,0,1,4.561-4.561,4.566,4.566,0,0,1,4.561,4.561A4.566,4.566,0,0,1-137.189,1.811Z" transform="translate(148 9)" fill="#afafaf"/>
</svg>
